<svg width="372" height="232" viewBox="0 0 372 232" fill="none" xmlns="http://www.w3.org/2000/svg">
<path d="M82.6269 149.406C36.9949 149.406 0 186.31 0 231.838H165.254C165.254 186.31 128.259 149.406 82.6269 149.406Z" fill="#EDF2C3"/>
<path d="M330.5 191C307.581 191 289 209.356 289 232H372C372 209.356 353.419 191 330.5 191Z" fill="#EDF2C3"/>
<path d="M211.731 97.887C137.577 97.887 77.4627 157.859 77.4627 231.838H346C346 157.859 285.886 97.887 211.731 97.887Z" fill="#F8FAE7"/>
<path fill-rule="evenodd" clip-rule="evenodd" d="M206.239 72.1272C206.239 54.6171 220.466 40.4235 238.018 40.4235C250.115 40.4235 260.632 47.1654 266.001 57.0884C269.695 53.6344 274.662 51.5195 280.125 51.5195C291.535 51.5195 300.782 60.7447 300.782 72.1272H259.469L206.239 72.1272Z" fill="#80CDD9"/>
<path fill-rule="evenodd" clip-rule="evenodd" d="M86.0735 20.8665C95.4821 8.20571 110.573 0 127.585 0C149.015 0 167.398 13.0235 175.213 31.5712C176.876 31.1407 178.62 30.9117 180.418 30.9117C191.828 30.9117 201.075 40.1369 201.075 51.5195L179.227 51.5195H109.707H75.9433H46.1493C46.1493 34.0093 60.3766 19.8157 77.9283 19.8157C80.7439 19.8157 83.474 20.1809 86.0735 20.8665Z" fill="#80CDD9"/>
<path d="M51.8847 227.256L40.5397 215.937C36.5051 211.912 36.5051 205.389 40.5397 201.367L71.8378 170.143C75.8723 166.118 82.4115 166.118 86.4428 170.143L97.791 181.461L51.8847 227.256Z" fill="#009BB4"/>
<path d="M51.3134 231.838C54.1655 231.838 56.4776 229.531 56.4776 226.686C56.4776 223.84 54.1655 221.534 51.3134 221.534C48.4613 221.534 46.1493 223.84 46.1493 226.686C46.1493 229.531 48.4613 231.838 51.3134 231.838Z" fill="#009BB4"/>
<path d="M92.0653 176.077L90.2384 174.255L111.457 153.087L109.594 151.229L88.3761 172.397L86.5493 170.574L109.594 147.584L115.11 153.087L92.0653 176.077Z" fill="#009BB4"/>
<path d="M175.254 92.735H159.761V72.1272H180.418V87.5831C180.418 90.4295 178.107 92.735 175.254 92.735Z" fill="#E3E3E3"/>
<path d="M180.418 72.1272H159.761C159.761 69.2808 162.072 66.9753 164.925 66.9753H180.418V72.1272Z" fill="#E3E3E3"/>
<path d="M221.764 144.258L185.582 103.039L185.434 103.161C183.694 100.067 180.382 97.887 176.419 97.887H149.752C149.552 97.887 149.365 97.9771 149.242 98.1349L113.471 144.016C113.351 144.168 113.174 144.251 112.98 144.264C109.104 144.49 106.373 148.978 109.436 153.097C109.478 153.151 109.527 153.203 109.582 153.241C113.719 156.304 118.232 153.563 118.438 149.683C118.448 149.506 118.522 149.339 118.654 149.223L148.358 122.884C148.774 122.513 149.433 122.809 149.433 123.363V128.728C149.433 128.776 149.426 128.821 149.417 128.866L139.124 175.073C139.111 175.134 139.088 175.192 139.059 175.247L113.284 221.534L108.587 230.907C108.374 231.335 108.684 231.838 109.165 231.838H138.062C138.543 231.838 138.853 231.335 138.64 230.907L134.095 221.84C133.998 221.65 134.005 221.424 134.108 221.237L159.719 175.25C159.748 175.195 159.771 175.137 159.784 175.076L163.389 158.889C163.531 158.252 164.425 158.207 164.632 158.825L170.07 175.102C170.083 175.144 170.093 175.189 170.099 175.234L175.25 221.498C175.254 221.521 175.254 221.547 175.254 221.569V231.194C175.254 231.548 175.544 231.838 175.899 231.838H204.68C205.254 231.838 205.542 231.145 205.135 230.74L196.072 221.695C195.969 221.592 195.904 221.456 195.888 221.311L190.756 175.237C190.749 175.192 190.74 175.147 190.727 175.105L175.351 129.088C175.289 128.905 175.315 128.705 175.418 128.541L178.927 122.987C179.127 122.671 179.55 122.591 179.853 122.809L216.312 149.223C216.474 149.339 216.564 149.526 216.577 149.722C216.809 153.583 221.305 156.297 225.433 153.241C225.488 153.2 225.54 153.151 225.579 153.097C228.709 148.878 225.782 144.28 221.764 144.258Z" fill="#009BB4"/>
<path d="M175.899 79.8552H174.608C174.608 78.7893 173.74 77.9232 172.672 77.9232C171.603 77.9232 170.735 78.7893 170.735 79.8552H169.444C169.444 78.081 170.893 76.6352 172.672 76.6352C174.45 76.6352 175.899 78.081 175.899 79.8552Z" fill="#009BB4"/>
<path d="M163.634 83.0751C161.856 83.0751 160.407 81.6294 160.407 79.8552C160.407 78.081 161.856 76.6352 163.634 76.6352V77.9232C162.566 77.9232 161.698 78.7893 161.698 79.8552C161.698 80.921 162.566 81.7871 163.634 81.7871V83.0751Z" fill="#009BB4"/>
<path d="M288.866 149.406H273.373V128.799H294.03V144.254C294.03 147.101 291.719 149.406 288.866 149.406Z" fill="#E3E3E3"/>
<path d="M294.03 128.799H273.373C273.373 125.952 275.684 123.647 278.537 123.647H294.03V128.799Z" fill="#E3E3E3"/>
<path d="M289.511 136.527H288.22C288.22 135.461 287.352 134.595 286.284 134.595C285.215 134.595 284.347 135.461 284.347 136.527H283.056C283.056 134.752 284.505 133.307 286.284 133.307C288.062 133.307 289.511 134.752 289.511 136.527Z" fill="#009BB4"/>
<path d="M277.246 139.747C275.468 139.747 274.019 138.301 274.019 136.527C274.019 134.752 275.468 133.307 277.246 133.307V134.595C276.178 134.595 275.31 135.461 275.31 136.527C275.31 137.592 276.178 138.459 277.246 138.459V139.747Z" fill="#009BB4"/>
<path d="M348.102 154.558H335.343H299.194H268.209H263.045H232.667C232.334 154.558 232.063 154.304 232.027 153.976C231.608 150.26 227.225 147.739 223.197 150.723C223.142 150.765 223.09 150.814 223.051 150.868C219.917 155.083 222.848 159.688 226.866 159.71C226.886 159.71 226.905 159.71 226.925 159.714L262.48 164.147C262.803 164.189 263.045 164.463 263.045 164.785V180.318V200.8C263.045 200.881 263.029 200.965 263 201.039L252.765 226.566C252.736 226.644 252.72 226.724 252.72 226.805V231.194C252.72 231.548 253.01 231.838 253.365 231.838H266.653C267.228 231.838 267.515 231.145 267.108 230.74L263.374 227.014C263.177 226.818 263.129 226.518 263.251 226.27L273.286 206.223C273.292 206.207 273.302 206.191 273.309 206.174L277.611 195.471C277.776 195.059 278.302 194.934 278.634 195.227L287.132 202.652C287.226 202.736 287.294 202.842 287.329 202.961L294.004 226.599C294.02 226.657 294.027 226.715 294.027 226.773V231.194C294.027 231.548 294.317 231.838 294.672 231.838H307.96C308.535 231.838 308.822 231.145 308.415 230.74L304.487 226.814C304.403 226.731 304.342 226.624 304.316 226.509L297.625 198.269C297.616 198.224 297.6 198.179 297.577 198.134L288.992 180.573C288.911 180.408 288.904 180.218 288.972 180.051L294.976 165.078C295.063 164.859 295.263 164.708 295.495 164.679L329.621 160.422C329.953 160.38 330.253 160.599 330.331 160.924C330.879 163.181 332.913 164.862 335.347 164.862C338.08 164.862 340.317 162.744 340.498 160.061C340.514 159.839 340.649 159.64 340.85 159.54L348.389 155.779C348.999 155.476 348.783 154.558 348.102 154.558Z" fill="#009BB4"/>
<path d="M294.03 133.951L296.99 136.903C297.803 137.715 297.228 139.103 296.076 139.103H294.03V133.951Z" fill="#E3E3E3"/>
<path d="M180.418 77.2792L183.378 80.2319C184.191 81.0433 183.617 82.4311 182.464 82.4311H180.418V77.2792Z" fill="#E3E3E3"/>
</svg>
