<svg width="220" height="170" viewBox="0 0 220 170" fill="none" xmlns="http://www.w3.org/2000/svg">
<path d="M93.7818 23.1751C91.6728 10.3824 100.317 0 113.11 0H19.6448C6.85212 0 -1.7922 10.3593 0.31673 23.1751H93.7818Z" fill="#80CDD9"/>
<path d="M93.7818 23.1751C91.6728 10.3824 100.317 0 113.11 0H19.6448C6.85212 0 -1.7922 10.3593 0.31673 23.1751H93.7818Z" fill="#009BB4"/>
<path d="M113.11 0H19.6448C26.1128 0.21489 32.3143 2.62782 37.2267 6.84084C42.1391 11.0539 45.4689 16.8154 46.6669 23.1751L67.1305 146.745C68.3324 153.102 71.6633 158.861 76.5749 163.074C81.4864 167.286 87.6858 169.7 94.1526 169.92H141.291C154.083 169.92 162.728 159.537 160.619 146.745L140.132 23.1751C138.934 16.8154 135.604 11.0539 130.692 6.84084C125.779 2.62782 119.578 0.21489 113.11 0Z" fill="#80CDD9"/>
<path d="M113.481 146.814C115.59 159.607 106.945 169.989 94.1526 169.989H187.618C190.527 170.087 193.42 169.52 196.076 168.331C198.733 167.142 201.083 165.362 202.947 163.126C204.811 160.891 206.14 158.26 206.833 155.433C207.526 152.606 207.565 149.658 206.946 146.814H113.481Z" fill="#80CDD9"/>
<path d="M113.481 146.814C115.59 159.607 106.945 169.989 94.1526 169.989H187.618C190.527 170.087 193.42 169.52 196.076 168.331C198.733 167.142 201.083 165.362 202.947 163.126C204.811 160.891 206.14 158.26 206.833 155.433C207.526 152.606 207.565 149.658 206.946 146.814H113.481Z" fill="#009BB4"/>
<path d="M128.521 33.9051H61.8001C61.4123 33.8911 61.0407 33.7459 60.746 33.4934C60.4513 33.2408 60.2511 32.8957 60.1779 32.5146C60.1383 32.3438 60.1389 32.1662 60.1795 31.9956C60.2201 31.825 60.2996 31.6662 60.4118 31.5315C60.5241 31.3968 60.666 31.2899 60.8264 31.2192C60.9869 31.1486 61.1615 31.116 61.3366 31.1241H128.058C128.445 31.1381 128.817 31.2833 129.112 31.5358C129.406 31.7884 129.607 32.1335 129.68 32.5146C129.719 32.6854 129.719 32.8631 129.678 33.0336C129.638 33.2042 129.558 33.363 129.446 33.4977C129.334 33.6324 129.192 33.7393 129.031 33.81C128.871 33.8806 128.696 33.9132 128.521 33.9051Z" fill="white"/>
<path d="M91.557 43.546H63.3992C63.0114 43.5319 62.6398 43.3868 62.3451 43.1342C62.0505 42.8816 61.8502 42.5366 61.777 42.1555C61.7375 41.9847 61.738 41.807 61.7786 41.6364C61.8192 41.4659 61.8987 41.307 62.011 41.1723C62.1232 41.0376 62.2651 40.9308 62.4255 40.8601C62.586 40.7894 62.7606 40.7568 62.9358 40.7649H91.0934C91.4813 40.779 91.8529 40.9241 92.1476 41.1767C92.4423 41.4293 92.6426 41.7743 92.7157 42.1555C92.7505 42.3258 92.7466 42.5017 92.7041 42.6703C92.6617 42.8389 92.5819 42.9957 92.4706 43.1293C92.3593 43.2628 92.2194 43.3696 92.0613 43.4417C91.9031 43.5138 91.7308 43.5495 91.557 43.546Z" fill="white"/>
<path d="M117.606 43.5459H98.1387C97.7537 43.5309 97.3853 43.3849 97.0945 43.1321C96.8037 42.8792 96.608 42.5347 96.5396 42.1554C96.5007 41.9866 96.5009 41.8111 96.5402 41.6423C96.5796 41.4736 96.657 41.3161 96.7666 41.1819C96.8762 41.0476 97.015 40.9403 97.1725 40.868C97.33 40.7958 97.502 40.7605 97.6752 40.7649H117.142C117.527 40.7799 117.896 40.926 118.186 41.1788C118.477 41.4317 118.673 41.7762 118.741 42.1554C118.78 42.3243 118.78 42.4998 118.741 42.6686C118.701 42.8373 118.624 42.9948 118.514 43.129C118.405 43.2632 118.266 43.3706 118.108 43.4428C117.951 43.5151 117.779 43.5504 117.606 43.5459Z" fill="white"/>
<path d="M131.812 53.3026H64.9983C64.6125 53.2939 64.2413 53.1536 63.9462 52.9049C63.6511 52.6562 63.45 52.3141 63.3761 51.9353C63.3365 51.7645 63.3371 51.5868 63.3777 51.4163C63.4182 51.2457 63.4977 51.0869 63.61 50.9522C63.7222 50.8175 63.8642 50.7106 64.0246 50.64C64.1851 50.5693 64.3597 50.5367 64.5348 50.5448H131.256C131.644 50.5588 132.015 50.704 132.31 50.9565C132.605 51.2091 132.805 51.5542 132.878 51.9353C132.912 52.0968 132.91 52.2638 132.873 52.4246C132.836 52.5853 132.764 52.736 132.662 52.8662C132.561 52.9963 132.432 53.1028 132.285 53.1782C132.138 53.2536 131.977 53.296 131.812 53.3026Z" fill="white"/>
<path d="M126.737 62.8508H66.5974C66.2096 62.8368 65.8379 62.6916 65.5433 62.439C65.2486 62.1864 65.0483 61.8414 64.9752 61.4603C64.9404 61.2899 64.9443 61.114 64.9868 60.9454C65.0292 60.7769 65.109 60.62 65.2203 60.4865C65.3316 60.3529 65.4715 60.2461 65.6296 60.174C65.7878 60.1019 65.9601 60.0662 66.1339 60.0698H126.389C126.777 60.0838 127.149 60.2289 127.443 60.4815C127.738 60.7341 127.938 61.0791 128.011 61.4603C128.05 61.6408 128.044 61.8278 127.996 62.0058C127.947 62.1838 127.857 62.3476 127.732 62.4836C127.607 62.6196 127.452 62.7239 127.279 62.7878C127.106 62.8516 126.92 62.8732 126.737 62.8508Z" fill="white"/>
<path d="M108.637 72.4916H68.1966C67.8087 72.4776 67.4371 72.3324 67.1424 72.0799C66.8478 71.8273 66.6475 71.4822 66.5743 71.1011C66.5389 70.9319 66.5426 70.7568 66.5851 70.5893C66.6275 70.4217 66.7077 70.2661 66.8195 70.1342C66.9312 70.0023 67.0716 69.8977 67.23 69.8283C67.3883 69.7589 67.5604 69.7266 67.7331 69.7338H108.197C108.58 69.7506 108.947 69.8939 109.241 70.1412C109.534 70.3885 109.737 70.7261 109.819 71.1011C109.854 71.2734 109.85 71.4514 109.806 71.6218C109.763 71.7921 109.681 71.9503 109.567 72.0843C109.453 72.2182 109.31 72.3246 109.149 72.3951C108.988 72.4657 108.813 72.4987 108.637 72.4916Z" fill="white"/>
<path d="M136.447 82.1556H69.7956C69.4078 82.1416 69.0362 81.9964 68.7415 81.7439C68.4468 81.4913 68.2465 81.1463 68.1734 80.7651C68.1386 80.5948 68.1425 80.4189 68.185 80.2503C68.2274 80.0817 68.3072 79.9248 68.4185 79.7913C68.5298 79.6578 68.6697 79.551 68.8278 79.4788C68.986 79.4067 69.1583 79.3711 69.3321 79.3746H136.053C136.441 79.3886 136.813 79.5338 137.107 79.7864C137.402 80.0389 137.602 80.384 137.675 80.7651C137.717 80.942 137.716 81.1264 137.672 81.3028C137.628 81.4791 137.542 81.6423 137.421 81.7785C137.301 81.9148 137.15 82.0202 136.98 82.0858C136.811 82.1514 136.628 82.1753 136.447 82.1556Z" fill="white"/>
<rect x="106.078" y="97" width="71" height="17" rx="8.5" fill="#E3E000"/>
<ellipse cx="185.078" cy="105.5" rx="17" ry="16.5" fill="#E3E000"/>
<path d="M203.671 118.962H201.232L200.368 118.129C203.394 114.609 205.215 110.039 205.215 105.069C205.215 93.9846 196.231 85 185.147 85C174.063 85 165.078 93.9846 165.078 105.069C165.078 116.153 174.063 125.137 185.147 125.137C190.117 125.137 194.687 123.316 198.207 120.29L199.04 121.154V123.593L214.478 139L219.078 134.4L203.671 118.962ZM185.147 118.962C177.459 118.962 171.253 112.756 171.253 105.069C171.253 97.3808 177.459 91.175 185.147 91.175C192.834 91.175 199.04 97.3808 199.04 105.069C199.04 112.756 192.834 118.962 185.147 118.962Z" fill="#6F7E84"/>
<path d="M119.544 109.5C119.48 109.5 119.425 109.477 119.381 109.43C119.336 109.383 119.313 109.327 119.313 109.26V104.08L117.855 105.25C117.817 105.283 117.772 105.3 117.721 105.3C117.644 105.3 117.58 105.263 117.529 105.19L117.126 104.65C117.094 104.597 117.078 104.547 117.078 104.5C117.078 104.42 117.113 104.353 117.184 104.3L119.333 102.57C119.39 102.523 119.47 102.5 119.572 102.5H120.417C120.487 102.5 120.542 102.523 120.58 102.57C120.625 102.61 120.647 102.667 120.647 102.74V109.26C120.647 109.327 120.625 109.383 120.58 109.43C120.542 109.477 120.487 109.5 120.417 109.5H119.544Z" fill="white"/>
<path d="M123.908 109.5C123.844 109.5 123.79 109.477 123.745 109.43C123.7 109.383 123.678 109.327 123.678 109.26V108.75C123.678 108.57 123.758 108.413 123.918 108.28L125.433 106.71C126.092 106.17 126.55 105.75 126.805 105.45C127.068 105.143 127.199 104.843 127.199 104.55C127.199 104.237 127.116 103.99 126.949 103.81C126.789 103.63 126.546 103.54 126.22 103.54C125.9 103.54 125.648 103.64 125.462 103.84C125.277 104.033 125.162 104.287 125.117 104.6C125.098 104.68 125.063 104.74 125.011 104.78C124.96 104.813 124.903 104.83 124.839 104.83H123.985C123.927 104.83 123.879 104.81 123.841 104.77C123.802 104.73 123.783 104.683 123.783 104.63C123.796 104.237 123.898 103.87 124.09 103.53C124.282 103.183 124.56 102.907 124.925 102.7C125.29 102.487 125.718 102.38 126.211 102.38C126.722 102.38 127.154 102.473 127.506 102.66C127.864 102.84 128.133 103.09 128.312 103.41C128.491 103.73 128.58 104.093 128.58 104.5C128.58 104.947 128.459 105.35 128.216 105.71C127.979 106.07 127.615 106.457 127.122 106.87L125.76 108.31H128.494C128.564 108.31 128.619 108.333 128.657 108.38C128.702 108.42 128.724 108.477 128.724 108.55V109.26C128.724 109.327 128.702 109.383 128.657 109.43C128.619 109.477 128.564 109.5 128.494 109.5H123.908Z" fill="white"/>
<path d="M134.089 109.6C133.526 109.6 133.046 109.507 132.65 109.32C132.26 109.133 131.965 108.9 131.767 108.62C131.575 108.333 131.473 108.04 131.46 107.74C131.46 107.68 131.479 107.633 131.518 107.6C131.562 107.56 131.614 107.54 131.671 107.54H132.535C132.675 107.54 132.768 107.607 132.813 107.74C132.953 108.22 133.382 108.46 134.098 108.46C134.489 108.46 134.796 108.367 135.019 108.18C135.243 107.987 135.355 107.713 135.355 107.36C135.355 106.693 134.955 106.36 134.156 106.36H133.168C133.097 106.36 133.04 106.337 132.995 106.29C132.95 106.243 132.928 106.187 132.928 106.12V105.7C132.928 105.593 132.973 105.493 133.062 105.4L134.78 103.65H132.036C131.972 103.65 131.917 103.627 131.873 103.58C131.828 103.533 131.805 103.477 131.805 103.41V102.75C131.805 102.677 131.825 102.617 131.863 102.57C131.908 102.523 131.965 102.5 132.036 102.5H136.152C136.222 102.5 136.279 102.523 136.324 102.57C136.369 102.617 136.391 102.677 136.391 102.75V103.35C136.391 103.45 136.35 103.543 136.267 103.63L134.607 105.41L134.722 105.42C135.336 105.473 135.822 105.667 136.18 106C136.545 106.333 136.727 106.81 136.727 107.43C136.727 107.87 136.612 108.253 136.382 108.58C136.158 108.907 135.845 109.16 135.442 109.34C135.045 109.513 134.594 109.6 134.089 109.6Z" fill="white"/>
<path d="M142.857 109.5C142.793 109.5 142.738 109.477 142.694 109.43C142.649 109.383 142.627 109.327 142.627 109.26V107.98H139.585C139.521 107.98 139.467 107.957 139.422 107.91C139.377 107.863 139.355 107.807 139.355 107.74V107.06C139.355 106.953 139.39 106.853 139.46 106.76L142.291 102.67C142.323 102.617 142.371 102.577 142.435 102.55C142.499 102.517 142.569 102.5 142.646 102.5H143.691C143.762 102.5 143.816 102.523 143.855 102.57C143.899 102.61 143.922 102.667 143.922 102.74V106.8H144.776C144.846 106.8 144.904 106.823 144.948 106.87C144.993 106.91 145.015 106.967 145.015 107.04V107.74C145.015 107.807 144.993 107.863 144.948 107.91C144.904 107.957 144.849 107.98 144.785 107.98H143.922V109.26C143.922 109.327 143.899 109.383 143.855 109.43C143.816 109.477 143.762 109.5 143.691 109.5H142.857ZM142.655 106.84V103.95L140.688 106.84H142.655Z" fill="white"/>
<path d="M150.18 109.61C149.65 109.61 149.192 109.517 148.808 109.33C148.431 109.143 148.14 108.897 147.935 108.59C147.737 108.283 147.632 107.953 147.619 107.6V107.58C147.619 107.527 147.638 107.483 147.676 107.45C147.715 107.417 147.763 107.4 147.82 107.4H148.713C148.86 107.4 148.956 107.467 149 107.6C149.09 107.893 149.237 108.11 149.442 108.25C149.653 108.39 149.899 108.46 150.18 108.46C150.539 108.46 150.836 108.347 151.073 108.12C151.316 107.893 151.437 107.577 151.437 107.17C151.437 106.81 151.316 106.517 151.073 106.29C150.836 106.063 150.539 105.95 150.18 105.95C149.989 105.95 149.832 105.977 149.71 106.03C149.589 106.083 149.47 106.157 149.355 106.25C149.279 106.31 149.218 106.353 149.173 106.38C149.135 106.4 149.087 106.41 149.029 106.41H148.146C148.089 106.41 148.038 106.39 147.993 106.35C147.955 106.303 147.935 106.25 147.935 106.19L148.271 102.77C148.278 102.69 148.303 102.627 148.348 102.58C148.399 102.527 148.463 102.5 148.54 102.5H152.147C152.211 102.5 152.266 102.523 152.31 102.57C152.355 102.617 152.378 102.673 152.378 102.74V103.41C152.378 103.477 152.355 103.533 152.31 103.58C152.266 103.627 152.211 103.65 152.147 103.65H149.375L149.221 105.28C149.534 105.053 149.953 104.94 150.478 104.94C150.894 104.94 151.277 105.033 151.629 105.22C151.987 105.4 152.272 105.663 152.483 106.01C152.694 106.35 152.8 106.747 152.8 107.2C152.8 107.687 152.691 108.113 152.473 108.48C152.256 108.84 151.949 109.12 151.552 109.32C151.162 109.513 150.705 109.61 150.18 109.61Z" fill="white"/>
<path d="M158.174 109.6C157.636 109.6 157.166 109.493 156.763 109.28C156.36 109.067 156.05 108.777 155.833 108.41C155.615 108.037 155.506 107.617 155.506 107.15C155.506 106.557 155.753 105.91 156.245 105.21L158.001 102.7C158.039 102.64 158.081 102.593 158.126 102.56C158.177 102.52 158.244 102.5 158.327 102.5H159.219C159.277 102.5 159.325 102.523 159.363 102.57C159.402 102.61 159.421 102.66 159.421 102.72C159.421 102.753 159.405 102.797 159.373 102.85L158.03 104.79C158.158 104.757 158.295 104.74 158.442 104.74C158.871 104.753 159.264 104.867 159.622 105.08C159.987 105.287 160.275 105.57 160.486 105.93C160.703 106.29 160.812 106.69 160.812 107.13C160.812 107.577 160.703 107.99 160.486 108.37C160.275 108.743 159.968 109.043 159.565 109.27C159.168 109.49 158.704 109.6 158.174 109.6ZM158.164 108.45C158.529 108.45 158.836 108.337 159.085 108.11C159.334 107.877 159.459 107.553 159.459 107.14C159.459 106.733 159.334 106.417 159.085 106.19C158.836 105.957 158.529 105.84 158.164 105.84C157.799 105.84 157.492 105.957 157.243 106.19C156.993 106.417 156.869 106.733 156.869 107.14C156.869 107.553 156.993 107.877 157.243 108.11C157.492 108.337 157.799 108.45 158.164 108.45Z" fill="white"/>
<path d="M178.682 112C178.567 112 178.465 111.96 178.375 111.88C178.299 111.787 178.26 111.687 178.26 111.58C178.26 111.487 178.286 111.407 178.337 111.34L182.52 104.86L178.644 98.66C178.606 98.58 178.586 98.5 178.586 98.42C178.586 98.3133 178.625 98.22 178.701 98.14C178.778 98.0467 178.874 98 178.989 98H181.772C181.925 98 182.053 98.04 182.155 98.12C182.258 98.2 182.354 98.3 182.443 98.42L184.727 102.04L187.048 98.42C187.215 98.14 187.439 98 187.72 98H190.368C190.47 98 190.56 98.0467 190.637 98.14C190.726 98.22 190.771 98.3133 190.771 98.42C190.771 98.5133 190.745 98.5933 190.694 98.66L186.799 104.84L191.02 111.34C191.059 111.393 191.078 111.473 191.078 111.58C191.078 111.687 191.04 111.787 190.963 111.88C190.886 111.96 190.79 112 190.675 112H187.816C187.547 112 187.323 111.867 187.144 111.6L184.612 107.76L182.098 111.6C181.957 111.867 181.74 112 181.445 112H178.682Z" fill="white"/>
<path fill-rule="evenodd" clip-rule="evenodd" d="M134.464 125.464V121.821H130.821V125.464H134.464ZM129 120H136.286V127.286H129V120ZM134.464 135.179V131.536H130.821V135.179H134.464ZM129 129.714H136.286V137H129V129.714ZM144.179 125.464V121.821H140.536V125.464H144.179ZM138.714 120H146V127.286H138.714V120ZM140.536 129.714H138.714V131.536H140.536V133.357H138.714V135.179H140.536V137H142.357V135.179H144.179V137H146V135.179H144.179V133.357H146V131.536H144.179V129.714H142.357V131.536H140.536V129.714ZM142.357 133.357H140.536V135.179H142.357V133.357ZM142.357 133.357V131.536H144.179V133.357H142.357Z" fill="white"/>
</svg>
