<svg width="286" height="99" viewBox="0 0 286 99" fill="none" xmlns="http://www.w3.org/2000/svg">
<path d="M38.5321 92.0425L5.73165 63.7931C2.09174 60.6513 0 56.1 0 51.2944V29.7756H11.0092V51.2875C11.0092 52.8894 11.7041 54.4088 12.922 55.4538L38.5321 77.5156L64.1422 55.4606C65.3532 54.4156 66.055 52.8963 66.055 51.2944V29.7756H77.0642V51.2875C77.0642 56.0931 74.9725 60.6513 71.3326 63.7863L38.5321 92.0425Z" fill="#009BB4"/>
<path d="M61.6514 51.7756H50.6422V27.6581L38.5321 15.5581L26.422 27.6581V51.7825H15.4128V27.6581C15.4128 24.7225 16.555 21.9587 18.633 19.8825L38.5321 0L58.4243 19.8756C60.5023 21.9519 61.6514 24.7156 61.6514 27.6513V51.7756Z" fill="#009BB4"/>
<path d="M38.5321 51.7756C43.0923 51.7756 46.789 48.082 46.789 43.5256C46.789 38.9693 43.0923 35.2756 38.5321 35.2756C33.972 35.2756 30.2752 38.9693 30.2752 43.5256C30.2752 48.082 33.972 51.7756 38.5321 51.7756Z" fill="#009BB4"/>
<path d="M99.633 23.9869L104.697 1.485H113.374L118.438 23.9869H113.869L112.975 19.9169H105.096L104.202 23.9869H99.633ZM108.241 5.25938L105.956 15.9431H112.115L109.83 5.25938H108.241Z" fill="#6F7E84"/>
<path d="M130.823 7.44562H135.261V23.9869H130.858V23.0587C129.268 23.9387 127.885 24.3856 126.716 24.3856C124.417 24.3856 122.876 23.7531 122.078 22.4812C121.28 21.2162 120.888 19.0919 120.888 16.115V7.44562H125.326V16.1837C125.326 17.8131 125.456 18.9269 125.725 19.525C125.993 20.1231 126.633 20.4187 127.644 20.4187C128.615 20.4187 129.53 20.2675 130.39 19.9581L130.823 19.8275V7.44562Z" fill="#6F7E84"/>
<path d="M148.541 11.22H144.468V18.0056C144.468 18.6656 144.482 19.1331 144.516 19.415C144.55 19.69 144.667 19.9306 144.881 20.1231C145.087 20.3225 145.417 20.4188 145.858 20.4188L148.376 20.35L148.576 23.8906C147.096 24.2206 145.968 24.3856 145.197 24.3856C143.209 24.3856 141.853 23.9388 141.124 23.045C140.394 22.1513 140.03 20.5013 140.03 18.1019V11.22H138.076V7.44563H140.03V2.84625H144.468V7.44563H148.541V11.22Z" fill="#6F7E84"/>
<path d="M152.312 9.31563C153.482 7.80313 155.436 7.04688 158.174 7.04688C160.913 7.04688 162.867 7.80313 164.037 9.31563C165.206 10.8281 165.791 12.9525 165.791 15.6819C165.791 21.4844 163.252 24.3856 158.174 24.3856C153.096 24.3856 150.557 21.4844 150.557 15.6819C150.557 12.9456 151.142 10.8281 152.312 9.31563ZM155.745 19.4219C156.2 20.2125 157.011 20.6112 158.181 20.6112C159.351 20.6112 160.163 20.2125 160.617 19.4219C161.071 18.6244 161.298 17.38 161.298 15.6819C161.298 13.9837 161.071 12.7463 160.617 11.9763C160.163 11.2063 159.351 10.8212 158.181 10.8212C157.011 10.8212 156.2 11.2063 155.745 11.9763C155.291 12.7463 155.064 13.9837 155.064 15.6819C155.064 17.38 155.291 18.6313 155.745 19.4219Z" fill="#6F7E84"/>
<path d="M169.039 23.9869V7.44562H173.443V9.19875C175.294 8.09875 177.062 7.37687 178.741 7.04688V11.5156C176.952 11.8937 175.417 12.2787 174.138 12.6706L173.477 12.9044V23.9869H169.039Z" fill="#6F7E84"/>
<path d="M181.355 5.32812V0.824997H185.794V5.32812H181.355ZM181.355 23.9869V7.44562H185.794V23.9869H181.355Z" fill="#6F7E84"/>
<path d="M189.206 11.4125V7.44562H201.489V11.4125L194.532 20.0131H201.489V23.98H189.206V20.0131L196.163 11.4125H189.206Z" fill="#6F7E84"/>
<path d="M217.617 12.6087V19.4906C217.658 20.02 217.748 20.3912 217.885 20.5975C218.016 20.8106 218.291 20.955 218.711 21.0444L218.58 24.3856C217.452 24.3856 216.557 24.31 215.883 24.1519C215.209 23.9937 214.528 23.6912 213.846 23.2237C212.257 23.9937 210.633 24.3787 208.975 24.3787C205.555 24.3787 203.842 22.5706 203.842 18.9544C203.842 17.1875 204.317 15.9362 205.266 15.2006C206.216 14.465 207.674 14.025 209.635 13.8944L213.179 13.6262V12.6019C213.179 11.9212 213.021 11.4469 212.718 11.1925C212.408 10.9381 211.913 10.8144 211.225 10.8144L204.998 11.0825L204.867 8.00249C207.227 7.36312 209.477 7.03999 211.603 7.03999C213.736 7.03999 215.271 7.47999 216.206 8.36687C217.149 9.25374 217.617 10.6631 217.617 12.6087ZM210.165 16.9744C208.927 17.0844 208.314 17.7444 208.314 18.9612C208.314 20.1781 208.858 20.7831 209.938 20.7831C210.778 20.7831 211.693 20.6525 212.69 20.3844L213.186 20.2537V16.7062L210.165 16.9744Z" fill="#6F7E84"/>
<path d="M231.344 25.8431C231.998 26.2419 232.321 27.0463 232.321 28.2563C232.321 29.4663 231.998 30.3875 231.358 31.02C230.718 31.6456 229.81 31.9619 228.64 31.9619C227.69 31.9619 226.817 31.8725 226.025 31.6938L225.564 31.5975L225.695 29.0194C226.376 29.04 226.906 29.0538 227.284 29.0538C228.124 29.0538 228.544 28.765 228.544 28.1944C228.544 27.7063 228.124 27.4656 227.284 27.4656H226.493V24.2894C224.573 24.0488 223.183 23.2306 222.337 21.8419C221.491 20.4531 221.064 18.315 221.064 15.4413C221.064 12.5675 221.615 10.4431 222.722 9.08876C223.823 7.73438 225.606 7.05376 228.055 7.05376C229.204 7.05376 230.67 7.23251 232.459 7.58313L233.353 7.78251L233.222 11.2888C231.482 11.11 230.188 11.0206 229.349 11.0206C227.828 11.0206 226.817 11.3438 226.321 11.9969C225.826 12.65 225.578 13.8806 225.578 15.6888C225.578 17.4969 225.826 18.7413 226.321 19.4081C226.817 20.0819 227.842 20.4188 229.383 20.4188L233.222 20.1506L233.353 23.6913C231.213 24.1106 229.514 24.3444 228.255 24.3856V25.2106C229.658 25.2313 230.69 25.4444 231.344 25.8431Z" fill="#6F7E84"/>
<path d="M249.303 12.6088V19.4906C249.344 20.02 249.433 20.3912 249.571 20.5975C249.702 20.8106 249.977 20.955 250.397 21.0444L250.266 24.3856C249.138 24.3856 248.243 24.31 247.569 24.1519C246.894 23.9938 246.213 23.6912 245.532 23.2237C243.943 23.9937 242.319 24.3787 240.661 24.3787C237.241 24.3787 235.528 22.5706 235.528 18.9544C235.528 17.1875 236.002 15.9363 236.952 15.2006C237.901 14.465 239.36 14.025 241.321 13.8944L244.865 13.6262V12.6019C244.865 11.9213 244.706 11.4469 244.404 11.1925C244.094 10.9381 243.599 10.8144 242.911 10.8144L236.683 11.0825L236.553 8.0025C238.913 7.36313 241.163 7.04 243.289 7.04C245.422 7.04 246.956 7.48 247.892 8.36687C248.835 9.25375 249.303 10.6631 249.303 12.6088ZM247.087 3.1625C246.867 3.39625 246.447 3.69875 245.828 4.07C245.209 4.44812 244.651 4.63375 244.156 4.63375C243.661 4.63375 242.904 4.43437 241.885 4.03562C240.867 3.63687 240.22 3.4375 239.931 3.4375C239.291 3.4375 238.562 3.69187 237.743 4.20062L237.317 4.46875L236.353 1.98688C236.794 1.47813 237.351 1.02437 238.025 0.611875C238.706 0.20625 239.291 0 239.787 0C240.282 0 241.046 0.199375 242.071 0.598125C243.096 0.996875 243.743 1.19625 244.011 1.19625C244.541 1.19625 245.271 0.92125 246.2 0.37125L246.661 0.075625L247.624 2.59188C247.486 2.73625 247.307 2.92875 247.087 3.1625ZM241.858 16.9744C240.619 17.0844 240.007 17.7444 240.007 18.9613C240.007 20.1781 240.55 20.7831 241.631 20.7831C242.47 20.7831 243.385 20.6525 244.383 20.3844L244.878 20.2537V16.7062L241.858 16.9744Z" fill="#6F7E84"/>
<path d="M254.436 9.31563C255.606 7.80313 257.56 7.04688 260.298 7.04688C263.037 7.04688 264.991 7.80313 266.161 9.31563C267.33 10.8281 267.915 12.9525 267.915 15.6819C267.915 21.4844 265.376 24.3856 260.298 24.3856C255.22 24.3856 252.681 21.4844 252.681 15.6819C252.681 12.9456 253.266 10.8281 254.436 9.31563ZM257.862 19.4219C258.317 20.2125 259.128 20.6112 260.298 20.6112C261.468 20.6112 262.28 20.2125 262.734 19.4219C263.188 18.6244 263.415 17.38 263.415 15.6819C263.415 13.9837 263.188 12.7463 262.734 11.9763C262.28 11.2063 261.468 10.8212 260.298 10.8212C259.128 10.8212 258.317 11.2063 257.862 11.9763C257.408 12.7463 257.181 13.9837 257.181 15.6819C257.188 17.38 257.415 18.6313 257.862 19.4219Z" fill="#6F7E84"/>
<path d="M101.518 57.6881V35.1931H116.092V39.16H106.094V44.4194H114.11V48.3244H106.094V53.7144H116.092V57.6812H101.518V57.6881Z" fill="#6F7E84"/>
<path d="M119.663 57.6881V34.5262H124.101V57.6881H119.663Z" fill="#6F7E84"/>
<path d="M132.86 53.5012C133.376 53.955 134.126 54.1819 135.096 54.1819C137.147 54.1819 138.984 54.1131 140.594 53.9825L141.523 53.8862L141.592 57.1587C139.053 57.7775 136.755 58.0869 134.704 58.0869C132.206 58.0869 130.397 57.4269 129.275 56.1C128.147 54.78 127.589 52.6281 127.589 49.6512C127.589 43.7181 130.025 40.7481 134.911 40.7481C139.72 40.7481 142.128 43.2437 142.128 48.2281L141.798 51.3081H132.062C132.069 52.3187 132.344 53.0544 132.86 53.5012ZM137.745 47.9256C137.745 46.6056 137.532 45.6844 137.119 45.1619C136.7 44.6462 135.963 44.385 134.917 44.385C133.872 44.385 133.128 44.6531 132.702 45.1962C132.268 45.7394 132.048 46.6469 132.021 47.9256H137.745Z" fill="#6F7E84"/>
<path d="M154.466 44.9144H150.392V51.7C150.392 52.36 150.406 52.8275 150.44 53.1094C150.475 53.3844 150.592 53.625 150.805 53.8175C151.011 54.0169 151.342 54.1131 151.782 54.1131L154.3 54.0444L154.5 57.585C153.021 57.915 151.892 58.08 151.122 58.08C149.133 58.08 147.778 57.6331 147.048 56.7394C146.319 55.8456 145.954 54.1956 145.954 51.7962V44.9144H144V41.14H145.954V36.5406H150.392V41.14H154.466V44.9144Z" fill="#6F7E84"/>
<path d="M157.349 57.6881V41.1469H161.752V42.9C163.603 41.8 165.372 41.0781 167.05 40.7481V45.2169C165.261 45.595 163.727 45.98 162.447 46.3719L161.787 46.6056V57.6881H157.349Z" fill="#6F7E84"/>
<path d="M170.56 43.0169C171.729 41.5044 173.683 40.7481 176.422 40.7481C179.161 40.7481 181.115 41.5044 182.284 43.0169C183.454 44.5294 184.039 46.6538 184.039 49.3831C184.039 55.1856 181.5 58.0869 176.422 58.0869C171.344 58.0869 168.805 55.1856 168.805 49.3831C168.805 46.6469 169.39 44.5294 170.56 43.0169ZM170.628 38.5L174.798 33.5019H177.578L181.817 38.5H177.743L176.222 36.2863L174.702 38.5H170.628ZM173.986 53.1231C174.44 53.9137 175.252 54.3125 176.422 54.3125C177.592 54.3125 178.404 53.9137 178.858 53.1231C179.312 52.3256 179.539 51.0813 179.539 49.3831C179.539 47.685 179.312 46.4475 178.858 45.6775C178.404 44.9075 177.592 44.5225 176.422 44.5225C175.252 44.5225 174.44 44.9075 173.986 45.6775C173.532 46.4475 173.305 47.685 173.305 49.3831C173.312 51.0813 173.532 52.3256 173.986 53.1231Z" fill="#6F7E84"/>
<path d="M191.718 57.6881H187.28V41.1469H191.683V42.075C193.183 41.195 194.567 40.7481 195.826 40.7481C198.034 40.7481 199.555 41.4012 200.394 42.7006C201.234 44 201.654 46.0075 201.654 48.7231V57.6881H197.216V48.8537C197.216 47.4444 197.05 46.3994 196.72 45.7256C196.39 45.0519 195.729 44.715 194.732 44.715C193.823 44.715 192.956 44.8731 192.117 45.1756L191.718 45.3062V57.6881Z" fill="#6F7E84"/>
<path d="M205.596 39.0294V34.5262H210.034V39.0294H205.596ZM205.596 57.6881V41.1469H210.034V57.6881H205.596Z" fill="#6F7E84"/>
<path d="M220.328 40.7481C221.477 40.7481 222.943 40.9269 224.732 41.2775L225.626 41.4769L225.495 44.9831C223.755 44.8044 222.461 44.715 221.622 44.715C220.101 44.715 219.089 45.0381 218.594 45.6912C218.099 46.3444 217.851 47.575 217.851 49.3831C217.851 51.1912 218.099 52.4356 218.594 53.1025C219.089 53.7762 220.115 54.1131 221.656 54.1131L225.495 53.845L225.626 57.3856C223.266 57.8463 221.463 58.08 220.232 58.08C217.782 58.08 216.021 57.3925 214.947 56.0106C213.874 54.6356 213.344 52.4219 213.344 49.3762C213.344 46.3306 213.895 44.1306 215.002 42.7762C216.103 41.4287 217.878 40.7481 220.328 40.7481Z" fill="#6F7E84"/>
<path d="M241.589 46.31V53.1919C241.631 53.7213 241.72 54.0925 241.858 54.2988C241.989 54.5119 242.264 54.6563 242.683 54.7456L242.553 58.0869C241.424 58.0869 240.53 58.0113 239.855 57.8531C239.181 57.695 238.5 57.3925 237.819 56.925C236.229 57.695 234.605 58.08 232.947 58.08C229.528 58.08 227.814 56.2719 227.814 52.6556C227.814 50.8888 228.289 49.6375 229.239 48.9019C230.188 48.1663 231.647 47.7263 233.608 47.5956L237.151 47.3275V46.3031C237.151 45.6225 236.993 45.1481 236.69 44.8938C236.381 44.6394 235.885 44.5156 235.197 44.5156L228.97 44.7838L228.839 41.7038C231.2 41.0644 233.45 40.7413 235.576 40.7413C237.709 40.7413 239.243 41.1813 240.179 42.0681C241.122 42.955 241.589 44.3644 241.589 46.31ZM234.138 50.6756C232.899 50.7856 232.287 51.4456 232.287 52.6625C232.287 53.8794 232.83 54.4844 233.911 54.4844C234.75 54.4844 235.665 54.3538 236.663 54.0856L237.158 53.955V50.4144L234.138 50.6756Z" fill="#6F7E84"/>
<path d="M267.186 34.5262V57.6881H262.782V56.9937C261.234 57.7225 259.899 58.0869 258.778 58.0869C256.369 58.0869 254.69 57.3925 253.748 56.0037C252.798 54.615 252.323 52.415 252.323 49.4037C252.323 46.3925 252.895 44.1994 254.03 42.8175C255.165 41.4356 256.885 40.7481 259.177 40.7481C259.885 40.7481 260.862 40.8581 262.122 41.0781L262.755 41.2087V34.5262H267.186ZM262.287 53.7212L262.748 53.625V44.9144C261.537 44.6944 260.45 44.5844 259.5 44.5844C257.711 44.5844 256.817 46.1725 256.817 49.3487C256.817 51.0675 257.016 52.2912 257.415 53.02C257.814 53.7487 258.468 54.1131 259.383 54.1131C260.298 54.1131 261.268 53.9825 262.287 53.7212Z" fill="#6F7E84"/>
<path d="M275.745 53.5012C276.261 53.955 277.011 54.1819 277.982 54.1819C280.032 54.1819 281.869 54.1131 283.479 53.9825L284.408 53.8862L284.477 57.1587C281.938 57.7775 279.64 58.0869 277.589 58.0869C275.092 58.0869 273.282 57.4269 272.161 56.1C271.032 54.78 270.475 52.6281 270.475 49.6512C270.475 43.7181 272.911 40.7481 277.796 40.7481C282.606 40.7481 285.014 43.2437 285.014 48.2281L284.683 51.3081H274.947C274.954 52.3187 275.229 53.0544 275.745 53.5012ZM280.631 47.9256C280.631 46.6056 280.417 45.6844 280.005 45.1619C279.585 44.6462 278.849 44.385 277.803 44.385C276.757 44.385 276.014 44.6531 275.587 45.1962C275.154 45.7394 274.933 46.6469 274.906 47.9256H280.631Z" fill="#6F7E84"/>
<path d="M113.704 68.8875H118.507L113.278 91.3894H104.835L99.6055 68.8875H104.408L108.317 87.4156H109.81L113.704 68.8875Z" fill="#6F7E84"/>
<path d="M121.087 72.7306V68.2275H125.525V72.7306H121.087ZM121.087 91.3894V74.8481H125.525V91.3894H121.087Z" fill="#6F7E84"/>
<path d="M142.314 80.0112V86.8931C142.356 87.4225 142.445 87.7938 142.583 88C142.713 88.2131 142.989 88.3575 143.408 88.4469L143.278 91.7881C142.149 91.7881 141.255 91.7125 140.58 91.5544C139.906 91.3963 139.225 91.0938 138.544 90.6263C136.954 91.3963 135.33 91.7813 133.672 91.7813C130.252 91.7813 128.539 89.9731 128.539 86.3569C128.539 84.59 129.014 83.3388 129.963 82.6031C130.913 81.8675 132.372 81.4275 134.333 81.2969L137.876 81.0288V80.0044C137.876 79.3238 137.718 78.8494 137.415 78.595C137.106 78.3406 136.61 78.2169 135.922 78.2169L129.695 78.4781L129.564 75.3981C131.924 74.7587 134.174 74.4356 136.3 74.4356C138.427 74.4356 139.968 74.8756 140.904 75.7625C141.846 76.6562 142.314 78.0656 142.314 80.0112ZM134.862 84.3769C133.624 84.4869 133.011 85.1469 133.011 86.3638C133.011 87.5738 133.555 88.1856 134.635 88.1856C135.475 88.1856 136.39 88.055 137.388 87.7869L137.883 87.6563V84.1156L134.862 84.3769Z" fill="#6F7E84"/>
<path d="M161.553 93.4588C161.553 95.3425 160.823 96.7381 159.365 97.6456C157.906 98.5531 155.938 99 153.454 99C150.97 99 149.064 98.67 147.722 98.01C146.388 97.35 145.72 96.1469 145.72 94.4006C145.72 93.0119 146.511 91.6987 148.108 90.4613C147.289 89.9113 146.883 89.0725 146.883 87.945C146.883 87.505 147.213 86.7762 147.874 85.7587L148.17 85.2981C146.67 84.2187 145.92 82.6237 145.92 80.52C145.92 78.4162 146.553 76.8831 147.826 75.9344C149.092 74.9856 150.778 74.5112 152.876 74.5112C153.826 74.5112 154.761 74.6212 155.69 74.8412L156.22 74.9375L161.553 74.7725V78.3131L159.069 78.1137C159.55 78.8631 159.798 79.6125 159.798 80.3619C159.798 82.5687 159.234 84.0881 158.112 84.9269C156.984 85.7656 155.222 86.185 152.814 86.185C152.305 86.185 151.851 86.1437 151.459 86.0544C151.239 86.6319 151.128 87.0994 151.128 87.4637C151.128 87.8281 151.314 88.0756 151.693 88.2063C152.071 88.3369 152.952 88.4194 154.342 88.44C157.122 88.4606 159.021 88.8319 160.039 89.5469C161.044 90.2687 161.553 91.575 161.553 93.4588ZM150.096 93.94C150.096 94.8887 151.259 95.3631 153.592 95.3631C155.917 95.3631 157.087 94.8131 157.087 93.7063C157.087 93.1081 156.888 92.73 156.489 92.565C156.089 92.4 155.25 92.3037 153.97 92.2831L150.991 92.0494C150.392 92.6475 150.096 93.2731 150.096 93.94ZM150.358 80.3894C150.358 82.0119 151.204 82.8231 152.89 82.8231C154.576 82.8231 155.422 82.0119 155.422 80.3894C155.422 78.7669 154.576 77.9556 152.89 77.9556C151.204 77.9556 150.358 78.7669 150.358 80.3894Z" fill="#6F7E84"/>
<path d="M168.688 87.2025C169.204 87.6562 169.954 87.8831 170.924 87.8831C172.975 87.8831 174.812 87.8144 176.422 87.6838L177.351 87.5875L177.42 90.86C174.881 91.4788 172.583 91.7881 170.532 91.7881C168.034 91.7881 166.225 91.1281 165.103 89.8012C163.975 88.4744 163.417 86.3294 163.417 83.3525C163.417 77.4194 165.853 74.4494 170.739 74.4494C175.548 74.4494 177.956 76.945 177.956 81.9294L177.626 85.0094H167.89C167.897 86.02 168.172 86.7556 168.688 87.2025ZM173.573 81.6269C173.573 80.3069 173.36 79.3856 172.947 78.8631C172.528 78.3475 171.791 78.0862 170.745 78.0862C169.7 78.0862 168.956 78.3544 168.53 78.8975C168.103 79.4406 167.876 80.3481 167.849 81.6269H173.573Z" fill="#6F7E84"/>
<path d="M185.56 91.3894H181.122V74.8481H185.525V75.7762C187.046 74.8962 188.353 74.4494 189.433 74.4494C191.222 74.4494 192.599 74.9719 193.576 76.0031C195.605 74.965 197.463 74.4494 199.135 74.4494C201.323 74.4494 202.837 75.0819 203.69 76.3537C204.537 77.6256 204.963 79.6469 204.963 82.4244V91.3894H200.525V82.555C200.525 81.1456 200.367 80.1006 200.064 79.4269C199.755 78.7531 199.135 78.4162 198.213 78.4162C197.505 78.4162 196.644 78.5675 195.633 78.8769L195.138 79.0419C195.227 80.6988 195.268 81.9569 195.268 82.8162V91.3825H190.83V82.8781C190.83 81.2488 190.686 80.0937 190.397 79.42C190.108 78.7462 189.482 78.4094 188.511 78.4094C187.651 78.4094 186.798 78.5606 185.959 78.87L185.56 79.0006V91.3894Z" fill="#6F7E84"/>
</svg>
