<svg width="318" height="102" viewBox="0 0 318 102" fill="none" xmlns="http://www.w3.org/2000/svg">
<path d="M82.3281 7.92553C87.5097 7.92553 91.7079 12.1098 91.7079 17.2741V84.7259C91.7079 89.8902 87.5097 94.0745 82.3281 94.0745H17.3317C12.1502 94.0745 7.95199 89.8902 7.95199 84.7259V17.2741C7.95199 12.1098 12.1502 7.92553 17.3317 7.92553H82.3281V7.92553ZM82.3281 0H17.3317C7.77706 0 0 7.75119 0 17.2741V84.7259C0 94.2535 7.77706 102 17.3317 102H82.3281C91.8875 102 99.6598 94.2488 99.6598 84.7259V17.2741C99.6646 7.75119 91.8875 0 82.3281 0Z" fill="#009BB4"/>
<path d="M70.6507 31.5608C66.6605 31.5608 63.3322 33.2005 61.1149 35.8911V32.2157H48.6196V70.4392H61.1859V49.0751C61.1859 45.1407 63.2566 43.303 66.1405 43.303C69.3931 43.303 70.9438 45.2066 70.9438 48.6181V70.4439H83.7323V44.0899C83.737 36.1549 78.5649 31.5608 70.6507 31.5608Z" fill="#009BB4"/>
<path d="M30.6024 31.5608C22.1209 31.5608 15.9276 37.9408 15.9276 45.7438C15.9276 53.6552 21.563 59.9268 30.6591 59.9268C37.2448 59.9268 41.3721 56.9253 43.9392 53.052L36.3513 49.3437C35.2923 51.1955 33.335 52.4536 30.8246 52.4536C28.0352 52.4536 25.9125 51.1437 24.967 48.7971H45.1684V45.6354C45.1684 37.6156 39.1973 31.5608 30.6024 31.5608ZM25.1892 42.2004C26.1914 40.1837 28.1487 38.9821 30.6591 38.9821C33.1695 38.9821 35.0653 40.0753 35.9589 42.2004H25.1892Z" fill="#009BB4"/>
<path d="M43.9392 62.5844H28.2716V70.4392H43.9392V62.5844Z" fill="#009BB4"/>
<path d="M129.686 0H134.481L143.349 24.9193H138.383L136.875 20.5833H127.285L125.776 24.9193H120.817L129.686 0ZM128.866 16.0403H135.304L132.087 6.75456L128.866 16.0403Z" fill="#6F7E84"/>
<path d="M143.834 18.2591V7.85127H148.596V17.649C148.596 19.9369 149.656 21.266 151.748 21.266C153.53 21.266 155.002 20.0385 155.002 17.1697V7.85127H159.695V24.9193H155.031V23.0418C153.901 24.4072 152.258 25.2606 150.305 25.2606C146.264 25.257 143.834 22.6641 143.834 18.2591Z" fill="#6F7E84"/>
<path d="M161.746 7.85127H164.657V3.85663L169.35 1.29643V7.85127H172.567V12.0493H169.35V17.4783C169.35 20.1402 169.693 20.5506 172.567 20.5506V24.9156H171.882C166.439 24.9156 164.657 23.0708 164.657 17.5074V12.0493H161.746V7.85127Z" fill="#6F7E84"/>
<path d="M173.595 16.3816C173.595 11.4646 177.534 7.50629 182.463 7.50629C187.393 7.50629 191.332 11.4646 191.332 16.3816C191.332 21.2987 187.393 25.257 182.463 25.257C177.534 25.257 173.595 21.2987 173.595 16.3816ZM186.781 16.3816C186.781 13.9594 184.865 11.944 182.467 11.944C180.037 11.944 178.186 13.9594 178.186 16.3816C178.186 18.8038 180.037 20.8193 182.467 20.8193C184.865 20.8193 186.781 18.8075 186.781 16.3816Z" fill="#6F7E84"/>
<path d="M193.219 7.85127H197.876V10.6511C198.732 8.87535 200.273 7.85127 202.602 7.85127H204.485V12.3906H201.505C199.005 12.3906 197.909 13.6871 197.909 16.861V24.9156H193.216V7.85127H193.219Z" fill="#6F7E84"/>
<path d="M206.613 1.46712H211.306V6.14447H206.613V1.46712ZM206.613 7.85127H211.306V24.9193H206.613V7.85127Z" fill="#6F7E84"/>
<path d="M213.529 20.7539L222.536 11.9803H213.667V7.85127H228.839V12.0493L219.832 20.7866H229.011V24.9156H213.533V20.7539H213.529Z" fill="#6F7E84"/>
<path d="M230.038 16.3816C230.038 10.3388 234.491 7.50629 238.36 7.50629C240.586 7.50629 242.332 8.327 243.461 9.52176V7.84765H248.154V24.9156H243.461V23.0055C242.332 24.3382 240.517 25.257 238.291 25.257C234.662 25.257 230.038 22.3917 230.038 16.3816ZM243.6 16.349C243.6 13.8214 241.749 11.7733 239.216 11.7733C236.615 11.7733 234.629 13.7198 234.629 16.349C234.629 18.9781 236.615 20.9573 239.216 20.9573C241.752 20.9573 243.6 18.8765 243.6 16.349Z" fill="#6F7E84"/>
<path d="M254.013 31.0964L256.684 29.4913C257.471 30.105 258.123 30.6171 259.285 30.6171C260.28 30.6171 261.136 30.174 261.136 29.593C261.136 28.9793 260.484 28.6706 259.183 28.6706H257.438V25.119C253.226 24.4363 250.041 20.8193 250.041 16.3816C250.041 11.4646 253.98 7.50629 258.91 7.50629C262.812 7.50629 265.829 9.72513 267.163 12.899L262.984 14.6748C262.331 13.0697 260.757 11.944 258.943 11.944C256.476 11.944 254.56 13.9231 254.56 16.3816C254.56 18.8402 256.476 20.8193 258.943 20.8193C260.757 20.8193 262.335 19.6936 262.984 18.0884L267.163 19.8642C265.997 22.6278 263.534 24.6759 260.346 25.1553V26.7241C262.914 26.6224 264.284 27.7809 264.284 29.455C264.284 31.5721 261.92 33.1083 258.906 33.1083C257.128 33.1083 255.314 32.2549 254.013 31.0964Z" fill="#6F7E84"/>
<path d="M268.194 16.3816C268.194 10.3388 272.646 7.50628 276.516 7.50628C278.742 7.50628 280.487 8.327 281.617 9.52175V7.84764H286.31V24.9156H281.617V23.0055C280.487 24.3382 278.673 25.257 276.447 25.257C272.818 25.257 268.194 22.3917 268.194 16.3816ZM275.281 1.53612C276.41 1.53612 277.197 1.94648 277.882 2.35683C278.534 2.76719 279.081 3.17755 279.664 3.17755C280.28 3.17755 280.589 2.69819 280.589 1.67411H283.293C283.293 4.47399 282.094 6.28247 279.697 6.28247C278.36 6.28247 277.471 5.70143 276.716 5.25839C276.203 4.94971 275.758 4.67735 275.277 4.67735C274.661 4.67735 274.388 5.12039 274.388 6.14447H271.681C271.684 3.37728 273.022 1.53612 275.281 1.53612ZM281.755 16.3489C281.755 13.8214 279.904 11.7733 277.372 11.7733C274.771 11.7733 272.781 13.7198 272.781 16.3489C272.781 18.9781 274.767 20.9573 277.372 20.9573C279.904 20.9573 281.755 18.8765 281.755 16.3489Z" fill="#6F7E84"/>
<path d="M288.194 16.3816C288.194 11.4646 292.132 7.50629 297.062 7.50629C301.992 7.50629 305.931 11.4646 305.931 16.3816C305.931 21.2987 301.992 25.257 297.062 25.257C292.132 25.257 288.194 21.2987 288.194 16.3816ZM301.38 16.3816C301.38 13.9594 299.463 11.944 297.066 11.944C294.636 11.944 292.785 13.9594 292.785 16.3816C292.785 18.8038 294.636 20.8193 297.066 20.8193C299.463 20.8193 301.38 18.8075 301.38 16.3816Z" fill="#6F7E84"/>
<path d="M121.706 34.4265H136.536V38.9658H126.468V44.5656H136.536V49.1049H126.468V54.8064H136.536V59.3457H121.706V34.4265V34.4265Z" fill="#6F7E84"/>
<path d="M138.831 34.4265H143.524V59.3457H138.831V34.4265Z" fill="#6F7E84"/>
<path d="M145.408 50.8081C145.408 45.8911 149.379 41.9328 154.313 41.9328C159.552 41.9328 163.149 45.8584 163.149 50.7718V52.4786H149.93C150.476 54.3561 152.017 55.5835 154.484 55.5835C156.368 55.5835 157.942 54.5594 158.696 52.9216L162.431 55.1405C160.959 57.8024 158.252 59.6798 154.451 59.6798C149.106 59.6835 145.408 55.7251 145.408 50.8081ZM150.134 48.7273H158.423C157.807 46.9515 156.335 46.0291 154.346 46.0291C152.36 46.0327 150.851 47.1222 150.134 48.7273Z" fill="#6F7E84"/>
<path d="M163.866 42.2778H166.778V38.2831L171.471 35.7229V42.2778H174.688V46.4758H171.471V51.9048C171.471 54.5667 171.813 54.9771 174.688 54.9771V59.3458H174.003C168.559 59.3458 166.778 57.501 166.778 51.9375V46.4758H163.866V42.2778Z" fill="#6F7E84"/>
<path d="M176.918 42.2778H181.574V45.0776C182.431 43.3018 183.972 42.2778 186.3 42.2778H188.184V46.8171H185.203C182.704 46.8171 181.607 48.1136 181.607 51.2875V59.3421H176.914V42.2778H176.918Z" fill="#6F7E84"/>
<path d="M189.109 50.8081C189.109 45.8911 193.048 41.9328 197.978 41.9328C202.908 41.9328 206.846 45.8911 206.846 50.8081C206.846 55.7252 202.908 59.6835 197.978 59.6835C193.048 59.6835 189.109 55.7252 189.109 50.8081ZM196.506 34.7679H199.417L203.494 40.571H199.967L197.949 37.5677L195.963 40.571H192.436L196.506 34.7679ZM202.296 50.8081C202.296 48.3859 200.379 46.3705 197.982 46.3705C195.551 46.3705 193.7 48.3823 193.7 50.8081C193.7 53.234 195.551 55.2458 197.982 55.2458C200.375 55.2458 202.296 53.234 202.296 50.8081Z" fill="#6F7E84"/>
<path d="M208.734 42.2778H213.39V44.1879C214.487 42.7898 216.163 41.9364 218.116 41.9364C222.157 41.9364 224.591 44.5293 224.591 48.9343V59.3457H219.829V49.548C219.829 47.2602 218.768 45.931 216.677 45.931C214.895 45.931 213.423 47.1585 213.423 50.0273V59.3457H208.73V42.2778H208.734Z" fill="#6F7E84"/>
<path d="M226.988 35.8936H231.681V40.571H226.988V35.8936ZM226.988 42.2778H231.681V59.3457H226.988V42.2778Z" fill="#6F7E84"/>
<path d="M233.565 50.8081C233.565 45.8911 237.504 41.9328 242.434 41.9328C246.336 41.9328 249.353 44.1516 250.686 47.3255L246.507 49.1013C245.855 47.4962 244.281 46.3704 242.466 46.3704C240 46.3704 238.083 48.3496 238.083 50.8081C238.083 53.2666 240 55.2458 242.466 55.2458C244.281 55.2458 245.859 54.12 246.507 52.5149L250.686 54.2907C249.349 57.4646 246.336 59.6835 242.434 59.6835C237.504 59.6835 233.565 55.7252 233.565 50.8081Z" fill="#6F7E84"/>
<path d="M251.717 50.8081C251.717 44.7653 256.17 41.9328 260.039 41.9328C262.266 41.9328 264.011 42.7535 265.141 43.9482V42.2741H269.833V59.3421H265.141V57.432C264.011 58.7647 262.196 59.6835 259.97 59.6835C256.341 59.6835 251.717 56.8182 251.717 50.8081ZM265.279 50.7754C265.279 48.2479 263.428 46.1998 260.896 46.1998C258.294 46.1998 256.308 48.1462 256.308 50.7754C256.308 53.4046 258.294 55.3838 260.896 55.3838C263.432 55.3838 265.279 53.303 265.279 50.7754Z" fill="#6F7E84"/>
<path d="M280.112 50.8081C280.112 44.7653 284.565 41.9328 288.434 41.9328C290.66 41.9328 292.406 42.7535 293.535 43.9482V34.4265H298.228V59.3457H293.535V57.4356C292.406 58.7683 290.591 59.6871 288.365 59.6871C284.736 59.6835 280.112 56.8182 280.112 50.8081ZM293.674 50.7754C293.674 48.2479 291.823 46.1998 289.29 46.1998C286.689 46.1998 284.703 48.1462 284.703 50.7754C284.703 53.4046 286.689 55.3838 289.29 55.3838C291.823 55.3838 293.674 53.3029 293.674 50.7754Z" fill="#6F7E84"/>
<path d="M300.112 50.8081C300.112 45.8911 304.083 41.9328 309.017 41.9328C314.256 41.9328 317.853 45.8584 317.853 50.7718V52.4786H304.634C305.18 54.3561 306.721 55.5835 309.188 55.5835C311.072 55.5835 312.646 54.5594 313.4 52.9216L317.135 55.1405C315.663 57.8024 312.956 59.6798 309.155 59.6798C303.81 59.6835 300.112 55.7251 300.112 50.8081ZM304.838 48.7273H313.127C312.511 46.9515 311.039 46.0291 309.05 46.0291C307.064 46.0327 305.559 47.1222 304.838 48.7273Z" fill="#6F7E84"/>
<path d="M120.817 68.853H125.751L131.573 86.5347L137.396 68.853H142.329L133.967 93.7686H129.172L120.817 68.853Z" fill="#6F7E84"/>
<path d="M144.005 70.3201H148.698V74.9975H144.005V70.3201ZM144.005 76.7042H148.698V93.7722H144.005V76.7042Z" fill="#6F7E84"/>
<path d="M150.578 85.2382C150.578 79.1954 155.031 76.3629 158.9 76.3629C161.126 76.3629 162.872 77.1836 164.005 78.3784V76.7042H168.698V93.7722H164.005V91.8621C162.875 93.1948 161.061 94.1136 158.835 94.1136C155.202 94.11 150.578 91.2447 150.578 85.2382ZM164.14 85.2019C164.14 82.6744 162.289 80.6299 159.756 80.6299C157.155 80.6299 155.166 82.5764 155.166 85.2019C155.166 87.8275 157.151 89.8103 159.756 89.8103C162.292 89.8103 164.14 87.7294 164.14 85.2019Z" fill="#6F7E84"/>
<path d="M170.582 85.2382C170.582 79.1954 175.034 76.3629 178.904 76.3629C181.13 76.3629 182.875 77.2853 184.005 78.549V76.7042H188.698V93.2929C188.698 98.1046 185.648 101.998 179.862 101.998C175.511 101.998 172.327 99.746 170.957 97.0805L175.1 94.76C175.989 96.5358 177.566 97.6615 179.862 97.6615C182.398 97.6615 184.005 95.6824 184.005 93.4636V91.8584C182.875 93.1912 181.061 94.11 178.834 94.11C175.205 94.11 170.582 91.2447 170.582 85.2382ZM184.143 85.2019C184.143 82.6744 182.292 80.6299 179.76 80.6299C177.158 80.6299 175.173 82.5764 175.173 85.2019C175.173 87.8275 177.158 89.8103 179.76 89.8103C182.292 89.8103 184.143 87.7294 184.143 85.2019Z" fill="#6F7E84"/>
<path d="M190.581 85.2382C190.581 80.3212 194.553 76.3629 199.486 76.3629C204.726 76.3629 208.322 80.2885 208.322 85.2019V86.9087H195.103C195.65 88.7862 197.191 90.0136 199.658 90.0136C201.541 90.0136 203.115 88.9896 203.87 87.3518L207.604 89.5706C206.132 92.2325 203.425 94.11 199.625 94.11C194.283 94.11 190.581 90.1516 190.581 85.2382ZM195.311 83.1538H203.6C202.984 81.378 201.512 80.4556 199.523 80.4556C197.537 80.4592 196.029 81.5486 195.311 83.1538Z" fill="#6F7E84"/>
<path d="M210.242 76.7042H214.899V78.5127C215.959 77.18 217.537 76.3629 219.453 76.3629C221.884 76.3629 223.702 77.318 224.729 79.0611C225.895 77.4233 227.845 76.3629 230.071 76.3629C234.421 76.3629 236.578 78.9558 236.578 83.3608V93.7686H231.816V83.9708C231.816 81.683 230.927 80.3539 228.836 80.3539C227.054 80.3539 225.753 81.5813 225.753 84.4502V93.7686H220.991V83.9708C220.991 81.683 220.102 80.3539 218.01 80.3539C216.229 80.3539 214.928 81.5813 214.928 84.4502V93.7686H210.235V76.7042H210.242Z" fill="#6F7E84"/>
</svg>
