<svg xmlns="http://www.w3.org/2000/svg" width="984.247" height="984.247" viewBox="0 0 984.247 984.247">
  <path id="bg-global_grey" d="M866.03,486.709l2.266.7a157.669,157.669,0,0,1-9.97,25.461l-2.114-1.089A156.08,156.08,0,0,0,866.03,486.709Zm-5.606,3.7q1.125-3.225,2.153-6.482l-2.273-.718c-.682,2.146-1.383,4.287-2.121,6.417Zm-17.408,29.03,1.894,1.429a95.207,95.207,0,0,0,10.451-17.738l-2.166-.992A92.993,92.993,0,0,1,843.016,519.437Zm-53.737-10.545,1.251,2.02c1.969-1.219,3.889-2.515,5.7-3.847l-1.409-1.92C793.061,506.445,791.2,507.7,789.279,508.892Zm9.85-17.078A82.029,82.029,0,0,1,784.6,503.38l1.267,2.014a84.556,84.556,0,0,0,14.942-11.9,85.664,85.664,0,0,0,9.818-11.783l-1.965-1.351A82.246,82.246,0,0,1,799.129,491.813Zm-5.188-5.189a84.314,84.314,0,0,1-19.581,14.534l1.128,2.085a86.347,86.347,0,0,0,20.13-14.935,88.651,88.651,0,0,0,17.143-24.41l-2.134-1.038A86.535,86.535,0,0,1,793.94,486.625Zm14.078-28.852-2.153-1.018a86.768,86.768,0,0,1-17.117,24.682,83.75,83.75,0,0,1-18.7,14.04l1.161,2.075a85.982,85.982,0,0,0,19.222-14.434A89.255,89.255,0,0,0,808.019,457.773Zm4.254-39.306,1.093.5,1.186.168c.621-2.114,1.238-4.232,1.878-6.343l-2.276-.685Q813.2,415.279,812.273,418.467Zm-8.951,33.064-2.153-1a87.762,87.762,0,0,1-17.608,25.713,83.331,83.331,0,0,1-17.706,13.48l1.18,2.062a85.49,85.49,0,0,0,18.2-13.859A89.862,89.862,0,0,0,803.322,451.531Zm4.426-32.088,1.92-6.52-2.279-.676-1.92,6.52Zm-12.1,31.929-2.1-1.109a84.381,84.381,0,0,1-15.177,20.793,82.783,82.783,0,0,1-16.648,12.863l1.219,2.05a85.414,85.414,0,0,0,17.111-13.228A86.909,86.909,0,0,0,795.651,451.372Zm.973-26.114,2.253.76c1.856-5.508,3.517-11.172,5.121-16.648l.847-2.893-2.285-.669-.847,2.893C800.115,414.158,798.46,419.8,796.624,425.259Zm-5.551,19.752-2.121-1.083a85.372,85.372,0,0,1-15.766,21.94c-16.678,16.671-37.26,22.7-57.161,28.529l-2.3.676.669,2.282,2.3-.676c20.185-5.913,41.059-12.029,58.156-29.13A87.74,87.74,0,0,0,791.073,445.01Zm5.1-31.971-2.273-.695c-1.542,5.053-2.9,9.129-4.264,12.831l2.231.824C793.252,422.255,794.616,418.137,796.174,413.039Zm-6.824,19.328-2.192-.931c-5.059,11.932-11.15,21.223-19.163,29.24-16.681,16.678-37.257,22.7-57.161,28.532l-1,.294.669,2.282,1.005-.294c20.185-5.913,41.058-12.026,58.169-29.13C777.913,454.12,784.165,444.59,789.35,432.367Zm.007-19.328-2.263-.731a132.421,132.421,0,0,1-10.416,24.785l2.069,1.167A134.35,134.35,0,0,0,789.357,413.039ZM712.47,482l.682,2.279c17.515-5.26,35.9-11.683,51.332-27.11a84.338,84.338,0,0,0,10.671-13.047l-1.975-1.319a81.891,81.891,0,0,1-10.374,12.682C747.765,470.526,729.691,476.833,712.47,482Zm72.125-75.477-2.273-.721a159.015,159.015,0,0,1-7.16,18.9l2.153,1A160.942,160.942,0,0,0,784.595,406.525Zm-13.859,31.234-2-1.287a82.143,82.143,0,0,1-11.12,13.826c-14.9,14.9-32.382,21.071-49.008,26.117l.689,2.276c16.176-4.91,34.713-11.424,50-26.712A84.525,84.525,0,0,0,770.736,437.759Zm4.71-32.036a129.815,129.815,0,0,1-7.843,18.588l2.1,1.109A131.864,131.864,0,0,0,777.7,406.5Zm-64.263,63.041.75,2.256c13.312-4.438,28.729-10.791,42.171-24.229A84.952,84.952,0,0,0,766.3,431.385l-2.02-1.254a82.8,82.8,0,0,1-11.851,14.98C739.33,458.2,724.227,464.413,711.183,468.764Zm59.475-62.323-2.227-.844q-1.183,3.147-2.531,6.242l2.182.947Q769.45,409.645,770.659,406.441Zm-12.595,24.326-1.94-1.38a82.461,82.461,0,0,1-8.9,10.532c-12.84,12.844-27.394,18.944-39.94,23.22l.769,2.25c12.055-4.106,27.585-10.522,40.852-23.786A85.445,85.445,0,0,0,758.064,430.767Zm5.36-24.413-2.185-.925c-.9,2.134-1.849,4.19-2.8,6.11l2.133,1.057C761.549,410.631,762.5,408.533,763.424,406.354Zm-19.7,30.058q.635-.635,1.251-1.274l-1.723-1.642c-.391.414-.8.828-1.206,1.235a82.319,82.319,0,0,1-14.36,11.46l1.27,2.011A84.285,84.285,0,0,0,743.724,436.411Zm-26.857,18.3c2.134-.976,4.206-2,6.149-3.045l-1.118-2.1c-1.9,1.022-3.931,2.024-6.016,2.98Zm41.873-54.752-2.192-.905a110.387,110.387,0,0,1-5.822,12.1l2.072,1.167A111.93,111.93,0,0,0,758.74,399.956ZM743.3,422.284c-1.371,1.746-2.835,3.456-4.345,5.082l1.742,1.62c1.552-1.675,3.055-3.433,4.477-5.231Zm5.851-23.382a91.841,91.841,0,0,1-10.3,17.23l1.891,1.442A94.164,94.164,0,0,0,751.3,399.9Zm-19.3,27.206,1.636,1.733c.627-.592,1.245-1.193,1.862-1.81,1.044-1.041,2.04-2.092,3-3.158l-1.762-1.594q-1.411,1.557-2.916,3.071C731.064,424.952,730.46,425.537,729.846,426.109ZM783.906,307.5l-1.736-1.626c-1.565,1.668-3.081,3.427-4.5,5.218l1.862,1.477C780.919,310.828,782.384,309.124,783.906,307.5ZM746.6,393.672l-2.166-.983a88.207,88.207,0,0,1-17.958,26.473,83.3,83.3,0,0,1-11.331,9.462l1.348,1.953a84.728,84.728,0,0,0,11.664-9.734A90.357,90.357,0,0,0,746.6,393.672Zm22.409-83.055,1.956,1.348a82.032,82.032,0,0,1,8.441-10.38l-1.717-1.649A84.588,84.588,0,0,0,769.007,310.617Zm-24.569,70.6-2.221-.853a118.9,118.9,0,0,1-5.476,12.281l2.111,1.093A121.493,121.493,0,0,0,744.438,381.216Zm-21.475,34.438a84.606,84.606,0,0,0,12.52-15.931l-2.03-1.241a82.853,82.853,0,0,1-12.307,15.627l.708.98Zm-5.379,4.94-1.532-1.823c-1.688,1.419-3.466,2.8-5.292,4.093l1.377,1.936C714.012,423.468,715.842,422.052,717.584,420.594Zm71.633-139.358a85.033,85.033,0,0,0-15.465,12.223c-8.095,8.1-14.256,17.415-19.377,29.311l2.185.941c5-11.609,11-20.689,18.872-28.567a82.911,82.911,0,0,1,15.032-11.887Zm-49.635,86.811a137.147,137.147,0,0,1-7.652,18.679l2.114,1.08a137.937,137.937,0,0,0,7.791-19Zm-23.5,40.735c-1.464,1.471-3.01,2.909-4.6,4.27l1.545,1.807c1.636-1.4,3.233-2.884,4.742-4.393a85.359,85.359,0,0,0,9.187-10.888l-1.94-1.377A82.092,82.092,0,0,1,716.087,408.781Zm-9.853,8.415a89.592,89.592,0,0,1-11.4,7.012l1.093,2.111a91.5,91.5,0,0,0,11.706-7.2ZM901.709,204.43a97.571,97.571,0,0,1-6.349,11.809l2.014,1.27a102.015,102.015,0,0,0,6.5-12.09ZM774.942,285.616a83.758,83.758,0,0,1,10.826-7.849l-1.238-2.027a87.382,87.382,0,0,0-11.137,8.069ZM757.715,306.05l-2.036-1.222a103.558,103.558,0,0,0-6.259,12.216l2.185.947A101.642,101.642,0,0,1,757.715,306.05Zm-20.883,57.015-2.256-.753c-1.571,4.72-3.126,8.848-4.749,12.62l2.185.938C733.66,372.039,735.238,367.849,736.832,363.065Zm-24.245,42.209a85.348,85.348,0,0,0,13.251-17.149l-2.053-1.212a82.439,82.439,0,0,1-22.28,24.759l1.413,1.914A84.344,84.344,0,0,0,712.586,405.274Zm-16.619,10.148a99.474,99.474,0,0,1-11.857,6.271l.973,2.169a101.5,101.5,0,0,0,12.136-6.42ZM896.614,199.028a98.132,98.132,0,0,1-6.32,11.822l2.014,1.267a99.9,99.9,0,0,0,6.472-12.106ZM785.542,267.066c-2.066,1.064-4.08,2.192-6,3.359l1.232,2.03c1.875-1.135,3.84-2.24,5.854-3.275Zm-32.9,33.594-2.04-1.232a104.04,104.04,0,0,0-6.281,12.2l2.179.954A101.536,101.536,0,0,1,752.646,300.661ZM707.4,400.086c15.152-15.158,21.562-33.21,26.385-48.94l-2.279-.7c-4.729,15.459-11.017,33.184-25.787,47.957a82.52,82.52,0,0,1-9.21,7.936l1.413,1.911A84.808,84.808,0,0,0,707.4,400.086Zm-16.429,10.021a98.245,98.245,0,0,1-11.838,6.3l.986,2.169a101.737,101.737,0,0,0,12.116-6.452Zm200.363-216.07a98.581,98.581,0,0,1-6.349,11.812l2.007,1.27a99.953,99.953,0,0,0,6.5-12.09Zm-74.957,54.717L812.118,250l.675,2.282,4.254-1.251c2.929-.86,5.864-1.717,8.783-2.606l-.689-2.276C822.226,247.04,819.3,247.9,816.379,248.753Zm-30.041,10.264a91.016,91.016,0,0,0-28.147,18.876c-7.981,7.975-14.062,17.114-19.144,28.755l2.179.954c4.956-11.363,10.878-20.269,18.643-28.028A88.914,88.914,0,0,1,787.3,261.189Zm-57.8,87.154q.994-3.259,1.953-6.527l-2.286-.669c-.64,2.169-1.283,4.338-1.946,6.5Zm-42.94,58.864a98.831,98.831,0,0,1-11.851,6.271l.979,2.172a101.829,101.829,0,0,0,12.129-6.423ZM885.788,189.627a97.061,97.061,0,0,1-6.449,11.754l2,1.29a99.763,99.763,0,0,0,6.611-12.039ZM871.215,212l1.762,1.591c1.532-1.7,3.016-3.482,4.4-5.292l-1.894-1.445C874.144,208.613,872.705,210.342,871.215,212Zm-58.6,31.147.669,2.282c6.65-1.949,13.144-3.889,19.5-6.2L831.973,237C825.679,239.281,819.227,241.208,812.616,243.148Zm-25.946,8.386C772.679,257,761.979,263.724,753,272.7a88.1,88.1,0,0,0-16.61,23.337l2.127,1.06a85.661,85.661,0,0,1,16.163-22.716c8.738-8.741,19.183-15.294,32.851-20.638ZM728.7,315.075c-1.749,5.247-3.326,10.632-4.849,15.843-1,3.4-1.995,6.808-3.045,10.193l2.276.7c1.047-3.4,2.049-6.815,3.048-10.228,1.523-5.189,3.094-10.555,4.823-15.763Zm-54.875,88.5,1.086,2.114a91.94,91.94,0,0,0,11.732-7.164l-1.39-1.93A89.809,89.809,0,0,1,673.83,403.577ZM881.96,187.106l-2.14-1.038a86.279,86.279,0,0,1-16.687,23.786,82.076,82.076,0,0,1-13.8,11.1l1.29,2a84.664,84.664,0,0,0,14.191-11.424A88.626,88.626,0,0,0,881.96,187.106ZM812.192,236.55l.682,2.279a189.927,189.927,0,0,0,25.69-9.281l-1-2.159A187.874,187.874,0,0,1,812.192,236.55ZM747.81,267.516A88.988,88.988,0,0,0,730.389,292.5l2.14,1.025A86.717,86.717,0,0,1,749.491,269.2c9.685-9.688,21.245-16.584,37.477-22.361l-.8-2.24C769.585,250.5,757.754,257.566,747.81,267.516Zm-20.2,31.254A269.573,269.573,0,0,0,718.67,325.7c-1.775,6.058-3.611,12.323-5.712,18.375l2.253.779c2.114-6.107,3.967-12.4,5.745-18.488a265.312,265.312,0,0,1,8.848-26.689Zm-43.648,89.659a88.73,88.73,0,0,1-16.92,10.771l1.054,2.13a91.075,91.075,0,0,0,17.363-11.056ZM880.9,172.4l-2.218-.86c-.808,2.085-1.671,4.16-2.586,6.21l2.166.973Q879.673,175.587,880.9,172.4Zm-22.959,32.266c-13.076,13.073-28.147,19.28-41.165,23.628l.756,2.256c13.28-4.435,28.668-10.778,42.09-24.2a87.337,87.337,0,0,0,15.646-21.452l-2.1-1.106A84.934,84.934,0,0,1,857.941,204.662Zm-115.32,57.662c-17.1,17.1-23.224,37.978-29.133,58.166-3.317,11.324-6.75,23.03-12.084,33.866l2.14,1.051c5.421-11.02,8.883-22.829,12.223-34.25,5.835-19.9,11.864-40.48,28.532-57.151,13.005-13,27.9-19.173,40.755-23.492l-.75-2.253C771.182,242.663,755.972,248.97,742.621,262.324Zm-42.316,99.14-2.059-1.193a83.469,83.469,0,0,1-12,16.057l1.723,1.639A86.167,86.167,0,0,0,700.305,361.464Zm-24.1,23.777,1.426,1.9c1.836-1.38,3.63-2.845,5.334-4.351l-1.584-1.778C679.732,382.477,677.99,383.9,676.206,385.241Zm-5.512,3.8c-1.833,1.164-3.776,2.3-5.786,3.385l1.125,2.095c2.059-1.112,4.06-2.276,5.935-3.472ZM831.317,214.988l1.093,2.114a87.394,87.394,0,0,0,22.021-15.947c7.969-7.969,14.043-17.085,19.118-28.69l-2.176-.95c-4.959,11.324-10.868,20.208-18.62,27.96A85.066,85.066,0,0,1,831.317,214.988Zm-92.206,43.829c8.017-8.011,17.292-14.1,29.214-19.154l-.934-2.189c-12.207,5.179-21.727,11.428-29.954,19.661-17.111,17.1-23.224,37.981-29.14,58.169-5.825,19.9-11.858,40.48-28.525,57.151a81.826,81.826,0,0,1-13.309,10.784l1.3,1.995a84.234,84.234,0,0,0,13.691-11.1c17.1-17.1,23.214-37.975,29.123-58.163C716.411,296.07,722.44,275.491,739.111,258.817ZM539.763,473.659l2.26.74a146.333,146.333,0,0,1,7.406-18.795l-2.14-1.041A148.16,148.16,0,0,0,539.763,473.659ZM798.977,220.27l.689,2.276c16-4.868,34.341-11.34,49.577-26.579a86.518,86.518,0,0,0,15.152-20.528l-2.088-1.128a84.5,84.5,0,0,1-14.745,19.975C832.713,209.136,814.691,215.486,798.977,220.27Zm-93.583,90.512c5.829-19.9,11.858-40.483,28.525-57.154,13.852-13.852,30.4-20.327,46.224-25.26l-.714-2.266c-16.105,5.02-32.977,11.628-47.188,25.845-17.1,17.1-23.217,37.978-29.127,58.166-5.835,19.9-11.864,40.48-28.532,57.154-1.41,1.406-2.867,2.764-4.338,4.034l1.558,1.8c1.51-1.309,3.013-2.706,4.458-4.154C693.365,351.844,699.478,330.97,705.393,310.782ZM531.9,477.076l2.279.679c3.485-11.689,7.856-25.167,15.54-37.163l-2-1.287C539.863,451.566,535.438,465.231,531.9,477.076Zm253.318-259.45c-20.191,5.913-41.065,12.026-58.169,29.13s-23.217,37.978-29.127,58.166c-5.832,19.9-11.864,40.483-28.538,57.157-.9.9-1.81,1.768-2.728,2.609l1.607,1.755q1.421-1.295,2.809-2.683c17.1-17.1,23.214-37.981,29.13-58.172,5.829-19.9,11.857-40.48,28.529-57.151s37.257-22.7,57.157-28.532c20.185-5.913,41.065-12.026,58.163-29.127a84.952,84.952,0,0,0,9.074-10.723l-1.936-1.38a82.7,82.7,0,0,1-8.815,10.419C825.7,205.768,805.122,211.794,785.219,217.626ZM625.484,386.6l.727,2.269q3.259-1.047,6.472-2.185l-.8-2.24Q628.7,385.576,625.484,386.6ZM539.049,445.23l-2.14-1.041a133.08,133.08,0,0,0-5.3,12.633l2.24.815A128.382,128.382,0,0,1,539.049,445.23ZM695.013,300.4c5.829-19.9,11.858-40.48,28.525-57.151s37.26-22.7,57.161-28.532c20.185-5.913,41.065-12.029,58.163-29.13a83.657,83.657,0,0,0,7.306-8.334L844.28,175.8a80.549,80.549,0,0,1-7.1,8.1c-16.674,16.674-37.25,22.7-57.151,28.532-20.191,5.913-41.065,12.029-58.169,29.13s-23.217,37.981-29.127,58.166c-5.835,19.9-11.864,40.483-28.532,57.157-1.587,1.584-3.233,3.1-4.9,4.513l1.536,1.817c1.717-1.455,3.414-3.019,5.043-4.649C682.984,341.464,689.1,320.59,695.013,300.4Zm-64.719,77.53c-3.737,1.429-7.8,2.816-12.785,4.361l.708,2.276c5.033-1.565,9.136-2.964,12.924-4.413Zm86.375-141.55c-17.1,17.1-23.214,37.978-29.133,58.166-5.777,19.742-11.754,40.157-28.128,56.753l1.694,1.668c16.794-17.02,22.855-37.729,28.719-57.752,5.829-19.9,11.858-40.483,28.529-57.154s37.257-22.7,57.158-28.532c20.191-5.913,41.065-12.026,58.166-29.13q1.692-1.687,3.236-3.423l-1.765-1.587c-1.012,1.125-2.053,2.234-3.152,3.33-16.668,16.674-37.25,22.7-57.154,28.529C754.647,213.158,733.773,219.274,716.669,236.378Zm-91.1,136.184c-3.756,1.451-7.813,2.845-12.772,4.393l.708,2.269c5.007-1.561,9.11-2.974,12.924-4.442ZM520.409,448.747l2.243.786a125.865,125.865,0,0,1,7.978-18.523l-2.095-1.128A129.908,129.908,0,0,0,520.409,448.747Zm-7.991,26.03,2.273.689c.656-2.176,1.293-4.351,1.93-6.527l-2.279-.669Q513.386,471.523,512.418,474.777ZM713.159,232.868c16.681-16.674,37.26-22.7,57.161-28.529,20.185-5.916,41.065-12.029,58.163-29.13l.782-.792-1.7-1.655-.757.763c-16.677,16.674-37.254,22.7-57.154,28.532-20.185,5.913-41.065,12.026-58.169,29.13s-23.217,37.978-29.127,58.166c-5.829,19.9-11.857,40.483-28.532,57.157-.753.747-1.51,1.477-2.273,2.182l1.623,1.746q1.173-1.091,2.328-2.247c17.1-17.1,23.217-37.981,29.133-58.172C690.462,270.121,696.491,249.539,713.159,232.868ZM610.52,370.839l.734,2.263a134.767,134.767,0,0,0,25.228-10.587l-1.161-2.072A133.073,133.073,0,0,1,610.52,370.839Zm-85.66,51.145c-7.419,12.779-11.521,26.8-15.494,40.357-2.9,9.918-5.909,20.175-10.183,29.8l2.179.967c4.335-9.769,7.361-20.1,10.29-30.1,3.928-13.422,7.994-27.3,15.268-39.83Zm183.11-194.3c16.681-16.674,37.257-22.7,57.157-28.532,19.917-5.832,40.512-11.864,57.477-28.448l-1.668-1.7c-16.535,16.167-36.84,22.115-56.478,27.866-20.185,5.916-41.065,12.029-58.163,29.13s-23.221,37.981-29.133,58.166c-5.825,19.9-11.854,40.483-28.532,57.157-12.708,12.708-27.446,18.885-38.86,22.849l.782,2.247c11.654-4.047,26.715-10.364,39.759-23.414,17.1-17.1,23.22-37.978,29.14-58.169C685.27,264.93,691.3,244.35,707.97,227.679ZM533.307,398.98c-17.1,17.1-23.22,37.981-29.13,58.169-4.312,14.722-8.77,29.941-17.482,43.441l2,1.293c8.9-13.794,13.4-29.182,17.76-44.065,5.835-19.9,11.864-40.483,28.532-57.157a83.716,83.716,0,0,1,18.291-13.81l-1.167-2.069A85.849,85.849,0,0,0,533.307,398.98Zm167.8-178.17c-17.1,17.1-23.217,37.978-29.133,58.166-5.829,19.9-11.858,40.48-28.525,57.154-8.864,8.861-19.5,15.5-33.507,20.89l.857,2.221c14.321-5.518,25.225-12.326,34.328-21.426,17.1-17.1,23.217-37.981,29.127-58.169,5.829-19.9,11.858-40.48,28.532-57.154s37.254-22.7,57.154-28.529c19.59-5.741,39.846-11.673,56.64-27.649l-1.633-1.72c-16.38,15.575-36.358,21.426-55.67,27.084C739.085,197.589,718.2,203.706,701.107,220.81ZM528.125,393.791c-17.111,17.1-23.224,37.981-29.139,58.169-4.4,15.035-8.951,30.581-18.045,44.3l1.985,1.312c9.288-14.023,13.888-29.744,18.339-44.947,5.835-19.9,11.864-40.483,28.535-57.154,8.062-8.059,17.411-14.175,29.427-19.251l-.921-2.189C545.992,379.231,536.4,385.509,528.125,393.791ZM669.071,274.453c5.819-19.9,11.851-40.48,28.525-57.154s37.25-22.7,57.151-28.529c17.453-5.111,35.5-10.4,51.048-22.774l-1.481-1.862c-15.187,12.087-33,17.308-50.236,22.354-20.185,5.913-41.065,12.026-58.163,29.13S672.7,253.6,666.786,273.784c-5.829,19.9-11.858,40.483-28.535,57.157-8.913,8.919-19.668,15.594-33.817,21.013l.847,2.218c14.479-5.538,25.49-12.384,34.651-21.549C657.036,315.518,663.152,294.641,669.071,274.453ZM524.615,390.284a86.013,86.013,0,0,1,23-16.309l-1.054-2.13A88.171,88.171,0,0,0,522.933,388.6c-17.107,17.107-23.22,37.984-29.136,58.172-5.02,17.143-10.215,34.868-22.163,50l1.865,1.474c12.242-15.494,17.5-33.446,22.584-50.805C501.911,427.538,507.94,406.955,524.615,390.284ZM663.879,269.265c5.829-19.9,11.851-40.483,28.525-57.154s37.254-22.7,57.154-28.532c17.5-5.124,35.586-10.422,51.167-22.865l-1.49-1.859C784.026,171,766.165,176.237,748.89,181.3c-20.185,5.916-41.065,12.029-58.163,29.13S667.51,248.4,661.594,268.6c-5.829,19.9-11.858,40.48-28.532,57.154-8.89,8.893-19.593,15.552-33.678,20.961l.847,2.221c14.415-5.531,25.373-12.362,34.509-21.5C651.844,310.33,657.963,289.453,663.879,269.265ZM517.745,383.411c-17.1,17.1-23.224,37.981-29.133,58.169-5.011,17.1-10.19,34.781-22.079,49.887l1.869,1.468c12.174-15.465,17.421-33.371,22.49-50.685,5.835-19.9,11.858-40.483,28.535-57.157,14.819-14.819,32.718-21.145,48.339-25.913l-.7-2.276C551.178,361.755,532.948,368.2,517.745,383.411ZM658.684,264.076c5.832-19.9,11.864-40.483,28.532-57.154s37.25-22.7,57.154-28.532c15.608-4.568,31.739-9.294,46.053-19.083l-1.345-1.965c-14,9.578-29.954,14.246-45.374,18.769-20.191,5.909-41.065,12.026-58.169,29.127s-23.214,37.981-29.13,58.169c-5.829,19.9-11.857,40.48-28.529,57.154-8.806,8.806-19.357,15.407-33.21,20.773l.866,2.218c14.166-5.492,24.976-12.262,34.024-21.307C646.662,305.141,652.775,284.264,658.684,264.076Zm-87.965,85.017c-20.191,5.913-41.065,12.029-58.163,29.13s-23.224,37.981-29.133,58.166c-4.377,14.938-8.9,30.387-17.874,44.042l1.988,1.309c9.168-13.956,13.739-29.576,18.164-44.682,5.835-19.9,11.858-40.48,28.532-57.151s37.254-22.7,57.154-28.532l4.71-1.384-.682-2.279ZM774.056,160.659a93.905,93.905,0,0,0,11.825-6.992l-1.358-1.953A92.071,92.071,0,0,1,773,158.535ZM653.5,258.884c5.828-19.9,11.857-40.48,28.525-57.154s37.254-22.7,57.154-28.529c9.5-2.783,19.328-5.66,28.651-9.659l-.934-2.185c-9.2,3.941-18.953,6.8-28.386,9.562-20.185,5.913-41.065,12.029-58.163,29.13s-23.217,37.981-29.133,58.166c-5.829,19.9-11.858,40.483-28.532,57.157-12.692,12.695-27.4,18.869-38.812,22.829l.782,2.247c11.644-4.044,26.676-10.358,39.707-23.4C641.467,299.949,647.583,279.073,653.5,258.884ZM509.046,374.715c16.674-16.674,37.25-22.7,57.151-28.532l5.457-1.607-.676-2.279-5.45,1.6c-20.185,5.913-41.065,12.029-58.163,29.13s-23.224,37.981-29.14,58.172c-4.306,14.7-8.757,29.906-17.444,43.4l1.995,1.287c8.877-13.778,13.38-29.149,17.735-44.013C486.339,411.969,492.368,391.386,509.046,374.715Zm266.7-223.034a85.053,85.053,0,0,0,16.4-12.8l.459-.465-.844-.837-.954-.721-.336.333a82.669,82.669,0,0,1-15.953,12.452Zm-271.9,217.842c16.674-16.674,37.254-22.7,57.154-28.529,20.191-5.913,41.065-12.029,58.163-29.133s23.224-37.978,29.14-58.166c5.825-19.9,11.858-40.483,28.525-57.154s37.25-22.7,57.154-28.532c5.512-1.613,11.218-3.284,16.774-5.159L750,160.6c-5.505,1.859-11.188,3.524-16.681,5.134-20.188,5.913-41.062,12.026-58.166,29.13s-23.214,37.975-29.13,58.166c-5.829,19.9-11.858,40.483-28.535,57.154s-37.25,22.7-57.151,28.529c-20.185,5.916-41.059,12.029-58.163,29.133s-23.224,37.981-29.133,58.169c-4.225,14.411-8.586,29.314-16.933,42.588l2.008,1.267c8.528-13.555,12.944-28.619,17.2-43.186C481.157,406.78,487.18,386.2,503.854,369.524ZM771.525,145.9a86.284,86.284,0,0,0,11.082-8.146l-1.561-1.794a83.993,83.993,0,0,1-10.771,7.92ZM669.966,189.669c-17.1,17.1-23.217,37.981-29.127,58.166-5.835,19.9-11.864,40.486-28.532,57.157s-37.257,22.7-57.161,28.532c-10.409,3.048-21.168,6.2-31.309,10.836l.989,2.163c9.983-4.565,20.66-7.691,30.989-10.716,20.188-5.913,41.065-12.029,58.166-29.13S637.2,268.7,643.119,248.5c5.829-19.9,11.857-40.48,28.525-57.154s37.26-22.7,57.161-28.525c8.014-2.35,16.309-4.778,24.258-7.868l-.86-2.218c-7.859,3.055-16.1,5.47-24.068,7.8C707.944,166.452,687.071,172.568,669.966,189.669ZM470.137,421.492c5.822-19.9,11.851-40.483,28.529-57.154a84.485,84.485,0,0,1,20.14-14.835l-1.119-2.1a86.784,86.784,0,0,0-20.7,15.249c-17.111,17.1-23.22,37.981-29.133,58.169-3.514,12-7.151,24.413-13.063,35.812l2.111,1.093C462.922,446.126,466.591,433.6,470.137,421.492ZM773.022,136.129l-1.435-1.9c-1.758,1.335-3.611,2.622-5.492,3.824l1.283,2C769.314,138.822,771.215,137.5,773.022,136.129ZM664.775,184.481c-17.1,17.1-23.214,37.978-29.123,58.166-5.835,19.9-11.864,40.483-28.532,57.157s-37.254,22.7-57.154,28.529c-10.034,2.938-20.4,5.974-30.2,10.335l.967,2.172c9.653-4.293,19.946-7.309,29.9-10.225,20.185-5.913,41.059-12.029,58.163-29.13s23.217-37.981,29.133-58.169c5.825-19.9,11.858-40.48,28.525-57.151s37.25-22.7,57.154-28.532c8.4-2.46,17.091-5,25.406-8.314l-.882-2.211c-8.208,3.271-16.839,5.8-25.186,8.243C702.752,161.263,681.879,167.376,664.775,184.481ZM462.663,415.638c-1.548,5.282-3.152,10.742-4.92,16.034l2.263.753c1.778-5.334,3.385-10.817,4.936-16.118,5.829-19.9,11.858-40.486,28.532-57.161a84.8,84.8,0,0,1,21.21-15.394l-1.106-2.111A87.232,87.232,0,0,0,491.8,357.462C474.692,374.57,468.572,395.45,462.663,415.638Zm-4.936,23.233-2.237-.834q-1.174,3.147-2.505,6.249l2.185.941Q456.523,442.075,457.727,438.871Zm2.027-27.753c5.832-19.9,11.858-40.486,28.532-57.164s37.25-22.7,57.151-28.529c20.195-5.913,41.068-12.029,58.172-29.133s23.214-37.978,29.13-58.166c5.829-19.9,11.858-40.483,28.529-57.154s37.25-22.7,57.144-28.529c2.418-.7,4.83-1.413,7.238-2.14l-.682-2.276c-2.408.724-4.813,1.429-7.225,2.134-20.185,5.913-41.058,12.029-58.156,29.127s-23.217,37.981-29.127,58.169c-5.832,19.9-11.864,40.483-28.532,57.154s-37.25,22.7-57.154,28.532c-20.191,5.913-41.065,12.026-58.169,29.13s-23.22,37.984-29.133,58.179c-1.426,4.875-2.9,9.915-4.513,14.812l2.26.74C456.835,421.072,458.318,416.013,459.754,411.119Zm23.34-62.349c16.674-16.674,37.254-22.7,57.154-28.532,20.191-5.913,41.065-12.029,58.169-29.13s23.217-37.981,29.133-58.172c5.829-19.9,11.857-40.48,28.525-57.151s37.257-22.7,57.161-28.532l1.988-.582-.669-2.282-1.988.582C692.375,150.883,671.5,157,654.4,174.1s-23.217,37.978-29.127,58.163c-5.835,19.907-11.858,40.486-28.532,57.157s-37.254,22.7-57.154,28.532c-20.191,5.913-41.065,12.029-58.169,29.13S458.2,385.06,452.283,405.242c-.7,2.37-1.384,4.739-2.095,7.1l2.279.685c.711-2.37,1.406-4.742,2.1-7.115C460.4,386.017,466.426,365.438,483.094,348.77Zm51.962-33.724c20.195-5.913,41.068-12.026,58.172-29.13s23.214-37.981,29.13-58.169c5.828-19.9,11.857-40.48,28.529-57.151,15.342-15.339,33.507-21.569,53.937-27.588l-.669-2.282c-20.754,6.113-39.216,12.452-54.949,28.186-17.1,17.1-23.217,37.981-29.127,58.166-5.825,19.9-11.858,40.483-28.532,57.157s-37.25,22.7-57.154,28.532c-20.191,5.913-41.065,12.026-58.169,29.127s-23.1,37.606-28.917,57.442l2.279.669c5.732-19.548,11.657-39.759,28.318-56.427S515.156,320.878,535.056,315.046ZM644.024,163.724c-17.111,17.1-23.224,37.978-29.133,58.166-5.828,19.9-11.857,40.483-28.532,57.154s-37.254,22.7-57.154,28.532c-6.187,1.81-12.585,3.685-18.785,5.851l.786,2.247c6.142-2.15,12.514-4.012,18.662-5.816,20.191-5.913,41.065-12.029,58.169-29.133s23.224-37.978,29.14-58.166c5.822-19.9,11.851-40.483,28.519-57.154s37.257-22.7,57.161-28.532c3.724-1.086,7.442-2.179,11.15-3.336l-.714-2.269c-3.685,1.154-7.4,2.237-11.1,3.323C682,140.506,661.122,146.619,644.024,163.724ZM498.695,320.658l-1-2.16a90.151,90.151,0,0,0-26.663,18.207c-17.065,17.065-23.152,37.81-28.525,56.113l2.279.669c5.289-18.029,11.295-38.466,27.924-55.1A87.83,87.83,0,0,1,498.695,320.658ZM638.832,158.535c-17.1,17.1-23.217,37.975-29.133,58.163-5.825,19.9-11.858,40.483-28.532,57.157a86.246,86.246,0,0,1-23.36,16.484l1.047,2.134a88.44,88.44,0,0,0,23.993-16.936c17.1-17.1,23.221-37.978,29.136-58.169,5.822-19.9,11.851-40.48,28.529-57.151s37.25-22.7,57.151-28.529c4.173-1.222,8.34-2.444,12.485-3.76l-.721-2.266c-4.122,1.309-8.279,2.525-12.426,3.74C676.81,135.315,655.93,141.428,638.832,158.535Zm-87.144,134.59c-8.977,3.782-18.481,6.569-27.675,9.262-5.744,1.684-11.686,3.423-17.463,5.4l.769,2.25c5.728-1.956,11.644-3.689,17.366-5.363,9.255-2.712,18.827-5.515,27.924-9.355ZM488.709,317.82l-1.106-2.111a87.37,87.37,0,0,0-21.753,15.808c-17.111,17.1-23.22,37.971-29.13,58.156l-.925,3.142,2.279.669.931-3.142c5.819-19.9,11.851-40.47,28.519-57.141A84.991,84.991,0,0,1,488.709,317.82Zm-226.082,248.6,2.285.679.96-3.262-2.286-.672ZM633.644,153.343c-17.1,17.1-23.217,37.981-29.133,58.166-5.829,19.9-11.858,40.483-28.532,57.157s-37.254,22.7-57.154,28.532c-9.6,2.812-19.535,5.719-28.955,9.785l.947,2.182c9.281-4.005,19.138-6.9,28.677-9.688,20.185-5.913,41.065-12.026,58.163-29.13s23.224-37.981,29.14-58.169c5.822-19.9,11.851-40.48,28.525-57.151s37.26-22.7,57.161-28.535c2.431-.711,4.856-1.422,7.28-2.153l-.689-2.276q-3.627,1.091-7.261,2.147C671.622,130.123,650.748,136.239,633.644,153.343ZM478.846,315.23l-1.212-2.046a85.124,85.124,0,0,0-16.972,13.141c-17.111,17.1-23.224,37.981-29.133,58.169-.815,2.774-1.629,5.547-2.47,8.314l2.282.689c.837-2.77,1.652-5.554,2.466-8.337,5.829-19.9,11.858-40.48,28.532-57.151A82.857,82.857,0,0,1,478.846,315.23ZM258.528,557.521c-.863,2.968-1.736,5.935-2.638,8.893l2.273.7c.908-2.968,1.781-5.945,2.648-8.922l.259-.86-2.285-.672ZM689.35,120.7l-.669-2.282-2.072.6c-3.666,1.073-7.329,2.147-10.972,3.284l.708,2.269c3.63-1.131,7.283-2.2,10.933-3.271ZM601.6,206.99c5.829-19.9,11.851-40.483,28.529-57.154,12.811-12.811,27.3-18.9,39.782-23.162l-.769-2.25c-12,4.1-27.459,10.5-40.693,23.731-17.1,17.1-23.217,37.978-29.133,58.166-5.825,19.9-11.857,40.483-28.532,57.157a84.872,84.872,0,0,1-20.948,15.262l1.1,2.108a87.108,87.108,0,0,0,21.53-15.692C589.572,248.055,595.689,227.178,601.6,206.99ZM492.32,298.766l.815,2.231c6.944-2.541,14.175-4.658,21.171-6.708,10.118-2.964,20.576-6.029,30.455-10.451l-.97-2.172c-9.731,4.358-20.117,7.4-30.151,10.338C506.608,294.066,499.335,296.2,492.32,298.766ZM463.749,316.9l-1.49-1.852a84.136,84.136,0,0,0-6.789,6.094c-17.1,17.1-23.221,37.981-29.136,58.172-1.322,4.51-2.641,9.016-4.08,13.484l2.266.731c1.445-4.49,2.767-9.019,4.1-13.545,5.825-19.9,11.858-40.483,28.532-57.161A82.343,82.343,0,0,1,463.749,316.9ZM282.485,494.122a88.3,88.3,0,0,0-16.917,23.945l2.134,1.051A86.083,86.083,0,0,1,284.163,495.8a84.452,84.452,0,0,1,20.027-14.77l-1.128-2.095A86.606,86.606,0,0,0,282.485,494.122Zm-24.51,43.011,2.253.747q1.062-3.205,2.221-6.378l-2.234-.821C259.427,532.817,258.686,534.973,257.975,537.133Zm-4,13.031-.624,2.13c-1.358,4.636-2.767,9.433-4.28,14.1l2.266.734c1.523-4.7,2.935-9.514,4.3-14.166l.617-2.127ZM678.232,114.771l.669,2.286,3.087-.908c3.32-.973,6.646-1.946,9.957-2.968l-.7-2.273c-3.3,1.018-6.611,1.988-9.924,2.958Zm-47.779,24.843-1.519-1.83c-1.762,1.471-3.488,3.029-5.121,4.636l1.665,1.694C627.068,142.556,628.737,141.04,630.453,139.614ZM565.6,258.286a82.373,82.373,0,0,1-14.03,11.253l1.28,2.008a84.536,84.536,0,0,0,14.427-11.576c17.111-17.107,23.224-37.984,29.14-58.172,5.328-18.194,10.836-37,24.446-52.767l-1.791-1.555c-13.956,16.154-19.542,35.217-24.94,53.653C588.3,221.033,582.273,241.612,565.6,258.286ZM545.792,272.94a126.8,126.8,0,0,1-18.507,8l.789,2.243a128.766,128.766,0,0,0,18.853-8.159Zm-36.665,16.154c4.16-1.219,8.327-2.437,12.462-3.75l-.718-2.266c-4.118,1.306-8.266,2.521-12.413,3.737-6.617,1.936-13.461,3.941-20.085,6.31l.8,2.24C495.727,293.019,502.542,291.024,509.127,289.094ZM476.719,300.47q3.05-1.445,6.155-2.706l-.9-2.2q-3.166,1.29-6.278,2.758ZM451.96,317.629q1.241-1.241,2.509-2.405l-1.6-1.752c-.879.8-1.736,1.623-2.589,2.476-17.1,17.1-23.217,37.981-29.133,58.172-1.8,6.149-3.663,12.511-5.8,18.649l2.244.782c2.166-6.2,4.034-12.588,5.845-18.766C429.256,354.883,435.285,334.3,451.96,317.629Zm-140.393,149.9.85,2.221c2.111-.811,4.219-1.574,6.346-2.3l-.769-2.25Q314.764,466.3,311.567,467.526Zm-34.273,21.4c-17.1,17.1-23.214,37.978-29.127,58.163-1.552,5.3-3.155,10.768-4.93,16.079l2.253.753c1.788-5.353,3.4-10.849,4.956-16.167,5.829-19.9,11.851-40.477,28.529-57.144a88.682,88.682,0,0,1,27.232-18.294l-.973-2.172A90.891,90.891,0,0,0,277.294,488.93Zm396.959-379.7.669,2.282,2.033-.595c3.682-1.08,7.354-2.156,11.01-3.3l-.711-2.269c-3.637,1.138-7.306,2.211-10.962,3.281Zm-85.314,86.717c-5.825,19.9-11.858,40.48-28.532,57.154-9.627,9.633-21.081,16.49-37.131,22.238l.8,2.24c16.4-5.874,28.121-12.9,38.01-22.794,17.1-17.1,23.221-37.981,29.133-58.172,4.274-14.57,8.686-29.637,17.217-43.03l-2-1.277C597.716,165.98,593.258,181.212,588.939,195.944Zm-91.556,87.415a193.548,193.548,0,0,0-25.716,9.233l.992,2.163a191.36,191.36,0,0,1,25.4-9.116Zm-50.611,29.081a84.334,84.334,0,0,1,19.881-14.689l-1.128-2.095a86.741,86.741,0,0,0-20.434,15.1c-17.111,17.107-23.22,37.987-29.136,58.179-2.3,7.881-4.691,16.028-7.7,23.8l2.214.857c3.045-7.868,5.444-16.063,7.768-23.99C424.068,349.7,430.1,329.115,446.771,312.441Zm-174.666,171.3c-17.1,17.1-23.217,37.978-29.133,58.169-1.432,4.894-2.916,9.96-4.532,14.877l2.266.743c1.623-4.956,3.113-10.037,4.552-14.951,5.829-19.9,11.858-40.486,28.525-57.157,15.336-15.336,33.5-21.565,53.915-27.581l-.669-2.282C306.288,461.675,287.839,468.011,272.105,483.745ZM663.666,105.638l.682,2.276c2.453-.737,4.91-1.455,7.367-2.176l5.67-1.671-.682-2.279-5.657,1.668C668.583,104.177,666.119,104.9,663.666,105.638ZM555.219,247.909c-14.877,14.88-33.035,21.261-48.875,26.075l.689,2.276c16.125-4.9,34.6-11.4,49.864-26.67,17.1-17.1,23.224-37.981,29.133-58.169,4.962-16.933,10.1-34.444,21.74-49.447l-1.875-1.461c-11.922,15.362-17.117,33.09-22.144,50.239C577.922,210.653,571.893,231.235,555.219,247.909Zm-56.466,30.8,1.755-.511-.669-2.286-1.749.514c-12.281,3.595-24.973,7.312-36.711,13.477l1.106,2.108C474.016,285.958,486.592,282.276,498.753,278.714Zm-57.174,28.538a82.629,82.629,0,0,1,9.536-8.176l-1.409-1.917a84.378,84.378,0,0,0-9.8,8.411c-17.1,17.1-23.224,37.978-29.133,58.166-2.822,9.633-5.738,19.593-9.818,28.962l2.185.95c4.135-9.507,7.07-19.542,9.912-29.243C418.883,344.5,424.905,323.923,441.579,307.252Zm-116.5,142.171c-20.191,5.916-41.065,12.029-58.163,29.13s-23.22,37.981-29.13,58.176c-1.329,4.526-2.7,9.207-4.17,13.762l2.263.731c1.484-4.584,2.858-9.281,4.186-13.826,5.832-19.9,11.864-40.486,28.532-57.161s37.25-22.7,57.144-28.529l4.422-1.3-.676-2.279Zm327.9-347.269.721,2.266c4.28-1.364,8.592-2.628,12.9-3.892q3.307-.97,6.611-1.949l-.688-2.279q-3.3.984-6.592,1.946C661.6,99.512,657.268,100.783,652.975,102.154ZM550.033,242.718c-16.674,16.674-37.257,22.7-57.157,28.532-7.658,2.243-15.578,4.561-23.191,7.455l.847,2.224c7.526-2.861,15.4-5.166,23.014-7.4,20.185-5.913,41.065-12.029,58.163-29.13s23.22-37.978,29.14-58.166c2.014-6.879,4.1-13.991,6.579-20.825l-2.237-.815c-2.512,6.908-4.6,14.059-6.627,20.971C572.733,205.467,566.7,226.047,550.033,242.718ZM464.3,283.472l-.96-2.182c-2.14.941-4.232,1.927-6.2,2.935l1.08,2.117C460.151,285.357,462.188,284.39,464.3,283.472Zm-17.534,9.8c1.788-1.274,3.669-2.512,5.593-3.676l-1.222-2.037c-1.985,1.2-3.915,2.47-5.748,3.779Zm-10.261,8.67-.815-.866-.98-.7c-17.107,17.1-23.22,37.978-29.13,58.166-3.339,11.408-6.8,23.208-12.207,34.111l2.13,1.057c5.5-11.095,8.99-22.994,12.362-34.5C413.688,339.314,419.717,318.735,436.5,301.947ZM319.894,444.231c-20.185,5.913-41.065,12.026-58.169,29.13s-23.185,37.871-29.068,57.953l2.286.666c5.8-19.794,11.793-40.263,28.461-56.934s37.26-22.7,57.161-28.532c3.989-1.17,7.975-2.337,11.938-3.585l-.711-2.269C327.843,441.9,323.864,443.067,319.894,444.231ZM661.322,95.365c2.512-.74,5.04-1.477,7.558-2.237l-.7-2.276c-2.505.756-5.02,1.493-7.539,2.231-4.009,1.173-8.017,2.35-12,3.608l.714,2.269C653.328,97.705,657.32,96.535,661.322,95.365Zm-114.8,143.849c17.1-17.1,23.224-37.984,29.133-58.172,1.477-5.027,3-10.228,4.665-15.278l-2.26-.747c-1.678,5.088-3.213,10.306-4.684,15.355-5.835,19.9-11.864,40.483-28.532,57.157s-37.254,22.7-57.154,28.532c-13.778,4.034-28.021,8.2-40.971,15.853l1.212,2.046c12.692-7.493,26.789-11.625,40.422-15.617C508.545,262.431,529.418,256.314,546.523,239.214Zm-119.18,61.793-1.794-1.565c-14.117,16.215-19.729,35.382-25.16,53.921-3.262,11.13-6.627,22.642-11.812,33.313l2.14,1.038c5.266-10.852,8.664-22.458,11.951-33.682C408.03,335.739,413.565,316.824,427.343,301.007ZM314.7,439.043c-20.185,5.913-41.065,12.026-58.163,29.13a89.116,89.116,0,0,0-17.4,24.937l2.147,1.028a86.853,86.853,0,0,1,16.93-24.284c16.674-16.671,37.257-22.7,57.157-28.529,6.346-1.862,12.915-3.782,19.277-6.026l-.789-2.243C327.559,435.277,321.026,437.19,314.7,439.043ZM657.811,89.682l-.676-2.282-6.52,1.917.676,2.282Zm-59.317,29.527-1.7-1.671c-1.671,1.7-3.294,3.5-4.81,5.334l1.83,1.516C595.291,122.6,596.865,120.861,598.495,119.209ZM482.5,260.869c-11.447,3.352-23.285,6.818-34.328,12.268l1.054,2.13c10.852-5.353,22.59-8.793,33.943-12.116,20.185-5.913,41.058-12.026,58.163-29.13s23.217-37.981,29.133-58.169c1.532-5.243,3.123-10.658,4.872-15.915l-2.253-.753c-1.768,5.3-3.359,10.739-4.9,16-5.835,19.9-11.864,40.486-28.535,57.161S502.4,255.041,482.5,260.869Zm-85.017,87.968c5.829-19.9,11.851-40.483,28.525-57.154a82.506,82.506,0,0,1,11.644-9.669l-1.351-1.962A85.161,85.161,0,0,0,424.333,290c-17.1,17.1-23.217,37.978-29.133,58.166a268.171,268.171,0,0,1-8.8,26.57l2.2.905A272.362,272.362,0,0,0,397.485,348.838Zm-87.971,85.017c-20.191,5.913-41.065,12.026-58.163,29.13A85.009,85.009,0,0,0,241.1,475.4l1.969,1.335a83.13,83.13,0,0,1,9.963-12.071c16.671-16.671,37.254-22.7,57.154-28.529a276.3,276.3,0,0,0,26.311-8.683l-.9-2.2A273.325,273.325,0,0,1,309.514,433.854Zm273.322-311a99.038,99.038,0,0,0-9.97,18l2.179.944a96.948,96.948,0,0,1,9.734-17.573ZM568.01,153.647c-.727,2.159-1.416,4.325-2.085,6.5l2.273.7q1-3.234,2.066-6.443ZM420.822,286.495c16.674-16.674,37.25-22.7,57.151-28.532,20.191-5.913,41.065-12.029,58.169-29.13s23.217-37.971,29.127-58.153l.979-3.336-2.279-.676-.986,3.343c-5.829,19.9-11.851,40.47-28.519,57.138s-37.254,22.7-57.161,28.532c-20.185,5.913-41.065,12.029-58.163,29.13a84.7,84.7,0,0,0-11.58,14.431l2.007,1.28A82.381,82.381,0,0,1,420.822,286.495ZM403.168,312.3l-2.153-1c-4.729,10.251-7.927,21.142-11.007,31.677a272.606,272.606,0,0,1-8.66,26.233l2.2.9a272.024,272.024,0,0,0,8.744-26.46C395.352,333.2,398.52,322.394,403.168,312.3ZM304.322,428.666c-20.185,5.913-41.065,12.026-58.163,29.127-.485.482-.96.97-1.426,1.458l1.73,1.636c.449-.472.908-.944,1.377-1.409,16.668-16.674,37.25-22.7,57.154-28.532,10.965-3.21,22.3-6.53,32.925-11.589l-1.022-2.147C326.44,422.184,315.2,425.478,304.322,428.666ZM561.047,162.2c3.857-13.1,7.9-25.82,14.867-37.506l-2.046-1.219c-7.109,11.925-11.2,24.8-15.1,38.052ZM400.957,301.158A84.414,84.414,0,0,1,415.631,281.3c16.674-16.671,37.254-22.7,57.154-28.532,20.191-5.913,41.065-12.026,58.169-29.127,15.727-15.73,22.066-34.179,28.179-54.92l-2.279-.672c-6.019,20.424-12.249,38.576-27.581,53.909-16.674,16.674-37.25,22.7-57.151,28.532-20.191,5.913-41.065,12.026-58.169,29.13a86.58,86.58,0,0,0-15.084,20.4Zm-13.82,37.186,1.7-5.783-2.279-.682-1.7,5.8c-1.345,4.581-2.69,9.161-4.151,13.7l2.263.731C384.441,347.548,385.793,342.944,387.138,338.344ZM299.8,425.76a273.273,273.273,0,0,0,26.6-8.8l-.9-2.2a270.012,270.012,0,0,1-26.372,8.719c-18.795,5.505-38.23,11.2-54.591,25.758l1.581,1.775C262.084,436.806,281.26,431.191,299.8,425.76ZM562.214,131.106c-.9,2.1-1.742,4.225-2.538,6.365l2.227.828q1.174-3.147,2.5-6.255Zm-6.536,26.511c1.219-4.135,2.528-8.538,4-12.947l-2.26-.75c-1.481,4.445-2.8,8.87-4.025,13.025Zm-29.915,60.836c15.7-15.7,21.973-33.888,28-54.316l-2.279-.676c-5.942,20.114-12.106,38-27.4,53.31-16.674,16.671-37.25,22.7-57.154,28.529-15.753,4.613-32.043,9.385-46.457,19.367l1.351,1.953c14.1-9.759,30.206-14.476,45.769-19.034C487.784,241.67,508.658,235.557,525.762,218.453ZM400.7,283.77l1.914,1.416a82.488,82.488,0,0,1,7.83-9.071l1.034-1.015-1.655-1.707-1.06,1.041A85.1,85.1,0,0,0,400.7,283.77ZM319.742,409.8c-8.4,3.388-17.243,5.977-25.8,8.486-20.195,5.913-41.068,12.026-58.166,29.13-.637.634-1.254,1.277-1.862,1.92l1.729,1.629c.595-.627,1.193-1.248,1.814-1.868,16.674-16.671,37.25-22.7,57.154-28.529,8.612-2.525,17.508-5.13,26.017-8.563Zm272-322.772-1.3-1.995a86.43,86.43,0,0,0-10.9,8.382l1.6,1.762A83.815,83.815,0,0,1,591.738,87.028ZM546.17,166.869l-2.266-.714q-1.013,3.225-2.114,6.423l2.247.776Q545.152,170.129,546.17,166.869ZM518.893,211.58c-16.674,16.674-37.25,22.7-57.157,28.532-16.189,4.746-32.935,9.65-47.663,20.217l1.387,1.93c14.4-10.332,30.947-15.178,46.952-19.865,20.185-5.913,41.059-12.029,58.163-29.13,8.948-8.945,15.653-19.587,21.1-33.491l-2.214-.866C534.135,192.495,527.6,202.878,518.893,211.58Zm-229.47,203.8c6-1.755,12.207-3.575,18.229-5.657l-.776-2.247c-5.974,2.062-12.148,3.873-18.122,5.622-19.4,5.683-39.462,11.56-56.155,27.187l1.623,1.736C250.5,426.778,270.292,420.982,289.423,415.376ZM563.216,100.521l1.914,1.416a81.831,81.831,0,0,1,7.917-9.184c1.881-1.881,3.879-3.692,5.929-5.379l-1.506-1.836c-2.117,1.736-4.16,3.595-6.1,5.531A85.719,85.719,0,0,0,563.216,100.521ZM476.693,231.109c11.282-3.989,25.868-10.209,38.692-23.033,9.779-9.776,16.729-21.287,22.545-37.322l-2.234-.808c-5.69,15.688-12.478,26.928-21.992,36.445-12.481,12.488-26.757,18.572-37.8,22.474Zm-38.9,12.178c6.394-2.266,13.031-4.209,19.445-6.087,4.338-1.27,8.683-2.541,12.982-3.915l-.721-2.266c-4.287,1.367-8.612,2.635-12.931,3.9-6.446,1.888-13.112,3.84-19.571,6.126Zm-18.462,8.091a112.315,112.315,0,0,1,12.152-5.712l-.889-2.2a115.586,115.586,0,0,0-12.414,5.832ZM306.314,403.153l-.828-2.231c-7.186,2.67-14.673,4.862-21.921,6.983-18.216,5.337-37.056,10.852-53.081,24.442l1.539,1.817c15.64-13.267,34.234-18.711,52.218-23.977C291.521,408.057,299.053,405.849,306.314,403.153ZM567.858,87.561a82.5,82.5,0,0,1,7.506-6.64L573.9,79.046a84.25,84.25,0,0,0-14.609,14.631l1.875,1.458A82.74,82.74,0,0,1,567.858,87.561Zm-39.507,88.773-2.166-1c-.954,2.075-1.956,4.1-2.99,6.01l2.088,1.128C526.344,180.521,527.375,178.455,528.352,176.334ZM508.516,201.2a86.23,86.23,0,0,1-23.489,16.545l1.047,2.137a88.467,88.467,0,0,0,24.119-17A84.142,84.142,0,0,0,521.8,188.405l-2-1.28A82.324,82.324,0,0,1,508.516,201.2Zm-35.883,21.782.821,2.234q3.21-1.178,6.378-2.5l-.931-2.2C476.832,221.4,474.734,222.213,472.633,222.985Zm-12.148,6.52c2.179-.663,4.351-1.338,6.511-2.05l-.747-2.26q-3.21,1.052-6.453,2.033Zm-13.038,3.857,6.517-1.914-.669-2.282-6.524,1.917Zm-19.257,6.368-.86-2.221a111.3,111.3,0,0,0-18.481,9.01l1.251,2.024A109.1,109.1,0,0,1,428.19,239.731ZM296.628,399.562l-.773-2.25c-5.764,1.972-11.725,3.718-17.482,5.405-17.609,5.156-35.825,10.493-51.478,23.117l1.5,1.852c15.287-12.326,33.261-17.592,50.65-22.687C284.826,403.305,290.813,401.55,296.628,399.562ZM555.37,90.732l-1.888-1.442c-1.384,1.81-2.709,3.708-3.947,5.641l1.995,1.287C552.742,94.34,554.032,92.491,555.37,90.732Zm-39.31,93.338a99.378,99.378,0,0,0,6.672-12l-2.153-1.015a95.125,95.125,0,0,1-6.511,11.715Zm-12.737,11.942a86.562,86.562,0,0,1-24.384,16.981l1.028,2.147A89.032,89.032,0,0,0,505.012,197.7a84.976,84.976,0,0,0,7.057-8.02l-1.875-1.458A82.485,82.485,0,0,1,503.324,196.012ZM466.5,218.14c-6.155,2.218-12.41,4.083-19.364,6.119l.669,2.282c6.989-2.046,13.286-3.925,19.5-6.168Zm-67.948,29.534c8.163-6.11,17.369-10.771,29.844-15.113l-.782-2.247c-12.714,4.426-22.118,9.194-30.488,15.456ZM296.916,392.4l-.837-2.221c-7.49,2.838-15.32,5.13-22.888,7.348-17.912,5.247-36.433,10.671-52.266,23.764l1.506,1.833c15.465-12.782,33.749-18.135,51.429-23.314C281.467,397.577,289.342,395.272,296.916,392.4ZM547.78,88.87l-1.956-1.348c-1.283,1.865-2.521,3.821-3.676,5.819l2.059,1.193C545.33,92.591,546.535,90.684,547.78,88.87ZM444.473,218.33l.669,2.282c20.615-6.077,38.957-12.384,54.671-28.105a90.966,90.966,0,0,0,18.834-28.044l-2.179-.967a88.659,88.659,0,0,1-18.333,27.326C482.809,206.149,464.764,212.347,444.473,218.33Zm-25.988,8.221q-3.2,1.2-6.359,2.551l.941,2.185q3.1-1.333,6.252-2.509ZM394.094,239.02l1.371,1.946a91.468,91.468,0,0,1,11.508-6.847L405.907,232A93.325,93.325,0,0,0,394.094,239.02Zm-106.3,149.629L287,386.4c-6.252,2.2-12.734,4.1-19.005,5.932-17.13,5.017-34.839,10.206-50.188,22.1l1.458,1.881c14.99-11.618,32.485-16.742,49.4-21.7C274.969,392.776,281.48,390.866,287.793,388.648ZM540.481,86.9l-2.02-1.258a102.8,102.8,0,0,0-6.427,12.129l2.172.98A98.819,98.819,0,0,1,540.481,86.9ZM494.625,187.316a85.72,85.72,0,0,0,13.965-18.384l-2.066-1.183a83.052,83.052,0,0,1-13.581,17.887c-16.668,16.671-37.244,22.7-57.148,28.529l-.265.078.941,2.2C456.654,210.533,477.527,204.417,494.625,187.316ZM410.516,225c3.75-1.523,7.9-3.01,12.7-4.545l-.721-2.269c-4.862,1.558-9.074,3.065-12.879,4.61Zm-17.887,9.187a94.824,94.824,0,0,1,11.725-6.5l-1.018-2.153a98.365,98.365,0,0,0-12.006,6.663ZM221.934,405.72c13-7.927,27.51-12.181,41.547-16.29,5.062-1.484,10.3-3.019,15.4-4.7l-.744-2.26c-5.062,1.675-10.28,3.2-15.323,4.681-14.188,4.151-28.855,8.45-42.122,16.545Zm267.5-223.593a88.209,88.209,0,0,0,16.9-23.916l-2.134-1.054a86.183,86.183,0,0,1-16.442,23.288c-15.161,15.155-33,21.349-51.484,26.857l.676,2.279C455.742,203.984,473.89,197.673,489.433,182.127Zm-71.976,33.316-.727-2.266c-4.849,1.568-9.055,3.09-12.863,4.652l.905,2.2C408.522,218.492,412.676,216.989,417.457,215.443ZM227.132,392.424l.97,2.169c9.743-4.364,20.143-7.409,30.193-10.354,4.875-1.426,9.908-2.9,14.825-4.513l-.744-2.26c-4.881,1.6-9.9,3.068-14.751,4.49C247.5,384.921,237.017,387.992,227.132,392.424ZM484.251,176.936a86.527,86.527,0,0,0,14.819-19.917l-2.085-1.141a84.239,84.239,0,0,1-14.415,19.377c-13.361,13.357-29.127,19.713-42.782,24.164l.731,2.263C454.449,197.14,470.538,190.649,484.251,176.936ZM225.034,388.48c9.1-3.873,18.74-6.7,28.073-9.433,3.524-1.028,7.044-2.062,10.548-3.152l-.7-2.269c-3.491,1.083-7.008,2.114-10.519,3.139-9.4,2.754-19.105,5.6-28.331,9.524ZM479.059,171.747a85.77,85.77,0,0,0,13.551-17.663l-2.059-1.2a83.4,83.4,0,0,1-13.17,17.182,88.1,88.1,0,0,1-26.272,17.861l.989,2.163A90.356,90.356,0,0,0,479.059,171.747ZM235.779,375.013l.714,2.273c3.8-1.193,7.61-2.311,11.428-3.43,2.7-.792,5.405-1.581,8.095-2.4l-.689-2.276c-2.683.815-5.379,1.6-8.075,2.392C243.421,372.7,239.587,373.82,235.779,375.013ZM229.3,377.14c-4.736,1.632-8.909,3.265-12.75,4.995l.973,2.169c3.776-1.7,7.878-3.307,12.546-4.914ZM473.871,166.559a85.222,85.222,0,0,0,9.084-10.742l-1.936-1.38a82.373,82.373,0,0,1-24.41,22.661l1.245,2.03A85.34,85.34,0,0,0,473.871,166.559ZM243.017,368.586c4.354-1.277,8.712-2.557,13.031-3.944l-.721-2.263c-4.306,1.38-8.644,2.654-12.986,3.924Zm-26.6,6.213c-2.114.847-4.219,1.746-6.294,2.709l1,2.156q3.06-1.416,6.184-2.657Zm21.164-11.334c3.042-.892,6.094-1.784,9.123-2.715l-.7-2.269c-3.023.925-6.061,1.814-9.1,2.7L233,362.334l.669,2.279ZM213.542,368.7a123.118,123.118,0,0,0-12.536,5.538l1.083,2.117a121.51,121.51,0,0,1,12.3-5.431Zm178.38-181.839a141.068,141.068,0,0,0-25.312,10.361l1.138,2.088a138.657,138.657,0,0,1,24.9-10.183ZM228.764,359.344l-.669-2.282c-2.176.64-4.354,1.293-6.52,1.962l.7,2.273Q225.515,360.3,228.764,359.344Zm-13.687,1.772a137.251,137.251,0,0,0-18.992,7.8l1.08,2.121a136.423,136.423,0,0,1,18.662-7.668Zm178-181.393c-12.129,3.63-22.183,7.131-31.816,12.4l1.141,2.088c9.452-5.172,19.374-8.622,31.364-12.21ZM235.75,348.065c-3.045.934-6.1,1.826-9.155,2.722l-3.866,1.138.669,2.279,3.866-1.135c3.061-.9,6.129-1.794,9.178-2.728Zm-32.479,10.222a123.357,123.357,0,0,0-12.546,5.521l1.086,2.117a121.682,121.682,0,0,1,12.3-5.418ZM367.987,181.322a113.016,113.016,0,0,0-12.4,5.874l1.154,2.082a110.069,110.069,0,0,1,12.142-5.751ZM221.914,347.929c2.942-.863,5.893-1.726,8.822-2.622l-.7-2.276c-2.922.9-5.861,1.752-8.8,2.615l-4.222,1.241.676,2.279Zm-11.421.931a156.264,156.264,0,0,0-25.438,10.008l1.093,2.111a154.068,154.068,0,0,1,25.06-9.85Zm-25.186,2.182a101.471,101.471,0,0,0-12.123,6.44l1.264,2.017a98.69,98.69,0,0,1,11.845-6.291ZM332.295,185.486l1.5,1.849a85.959,85.959,0,0,1,11.03-7.568l-1.193-2.056A88.8,88.8,0,0,0,332.295,185.486Zm-3.53,6.275-1.642-1.723c-.472.446-.934.9-1.393,1.364a86.678,86.678,0,0,0-15.174,20.56l2.1,1.128a84.192,84.192,0,0,1,14.761-20.007C327.863,192.63,328.309,192.191,328.765,191.761ZM218.646,335.448c2.169-.653,4.348-1.322,6.507-2.017l-.731-2.266q-3.22,1.038-6.465,2.007Zm-33.129,8.12A101.33,101.33,0,0,0,161.5,356.754l1.432,1.9A98.863,98.863,0,0,1,186.4,345.779ZM369,159.97c-19.27,5.929-34.884,12.656-48.465,26.24a87.092,87.092,0,0,0-15.7,21.565l2.1,1.1a85.118,85.118,0,0,1,15.281-20.987c13.238-13.235,28.558-19.826,47.479-25.648Zm-77.8,93.464-2.273-.692c-1.536,5.043-2.88,9.123-4.245,12.837l2.237.821C288.3,262.641,289.655,258.519,291.2,253.434Zm-66.623,70.748q-3.2,1.12-6.417,2.134l.721,2.269c2.172-.689,4.332-1.4,6.485-2.159ZM180.174,341l-.9-2.2a105.063,105.063,0,0,0-18.271,9.456l1.306,1.988A102.727,102.727,0,0,1,180.174,341Zm188.98-187.833c-19.428,5.751-38.162,12.207-53.805,27.85a87.806,87.806,0,0,0-16.273,22.664l2.124,1.08A85.408,85.408,0,0,1,317.027,182.7c15.255-15.249,33.678-21.591,52.809-27.248ZM288.5,239.857l1.022-3.478-2.286-.672-1.022,3.482c-2.159,7.39-4.393,15.029-7.141,22.348l2.227.831C284.076,254.97,286.323,247.286,288.5,239.857Zm-63.92,77.226c-7.868,3.052-16.109,5.466-24.084,7.8l-1.684.491.669,2.282,1.684-.495c8.02-2.347,16.315-4.778,24.271-7.868Zm-38.055,14.541q3.21-1.052,6.452-2.027l-.689-2.276c-2.179.659-4.348,1.335-6.507,2.043Zm-7.2-.029a109.736,109.736,0,0,0-24.536,12.161l1.332,1.965a107.776,107.776,0,0,1,24.016-11.893ZM369.254,146.429l-.921.272c-20.191,5.916-41.065,12.029-58.169,29.133a88.3,88.3,0,0,0-16.859,23.831l2.127,1.054a86.2,86.2,0,0,1,16.406-23.2c16.681-16.674,37.263-22.7,57.164-28.532l.921-.268Zm-85.279,86-2.286-.666-.647,2.2c-1.665,5.68-3.385,11.554-5.321,17.24l2.247.766c1.959-5.732,3.689-11.634,5.36-17.337Zm-13.109,31.338a102.537,102.537,0,0,1-6.2,11.9L266.7,276.9a105.764,105.764,0,0,0,6.346-12.174Zm-74.85,58.2c14-4.1,28.461-8.337,41.582-16.225l-1.225-2.037c-12.856,7.726-27.174,11.922-41.026,15.979-13.8,4.041-28.079,8.221-41.049,15.9l1.219,2.046C168.229,330.107,182.352,325.969,196.017,321.967Zm-52.974,21.51,1.516,1.83c1.717-1.419,3.511-2.783,5.321-4.051l-1.358-1.949C146.654,340.61,144.811,342.013,143.043,343.478ZM375.765,137.707c-4.186,1.332-8.408,2.57-12.633,3.8-20.185,5.913-41.058,12.029-58.156,29.13a86,86,0,0,0-14.288,18.95l2.069,1.17a83.8,83.8,0,0,1,13.9-18.439c16.674-16.674,37.254-22.7,57.154-28.529,4.235-1.241,8.473-2.483,12.685-3.821ZM278.406,228.52l-2.286-.669-.278.963c-4.836,16.5-9.837,33.565-20.854,48.293l1.9,1.422c11.282-15.068,16.338-32.343,21.232-49.046Zm-87.58,88.256c17.712-5.185,36.022-10.552,51.742-23.33l-1.5-1.846c-15.342,12.478-33.426,17.773-50.915,22.894-16.29,4.775-33.135,9.708-47.928,20.411l1.4,1.927C158.075,326.37,174.727,321.492,190.825,316.776ZM382.036,128.513c-7.862,3.058-16.109,5.473-24.084,7.807-20.191,5.916-41.072,12.029-58.169,29.133a84.5,84.5,0,0,0-11.46,14.247l2,1.29a82.092,82.092,0,0,1,11.14-13.855c16.674-16.674,37.25-22.7,57.157-28.529,8.02-2.353,16.315-4.781,24.278-7.875ZM243.806,282.457c17.1-17.1,23.159-37.8,29.023-57.81l-2.286-.669c-5.777,19.726-11.748,40.124-28.419,56.8s-37.257,22.7-57.157,28.529c-16.707,4.894-33.982,9.953-49.053,21.232l1.426,1.9c14.725-11.023,31.79-16.018,48.3-20.854C205.822,305.675,226.7,299.562,243.806,282.457ZM294.6,160.265a83.6,83.6,0,0,0-8.353,9.73l1.914,1.409a82.216,82.216,0,0,1,8.117-9.459c16.671-16.671,37.254-22.7,57.154-28.529,7.59-2.221,15.436-4.523,22.981-7.38l-.837-2.221c-7.464,2.822-15.268,5.111-22.813,7.319C332.573,137.047,311.693,143.164,294.6,160.265Zm-55.981,117c17.1-17.1,23.217-37.978,29.127-58.166l1.426-4.833-2.286-.676-1.419,4.839c-5.829,19.9-11.858,40.48-28.525,57.151s-37.26,22.7-57.161,28.532c-17.124,5.014-34.819,10.2-50.162,22.079l1.451,1.881c14.99-11.605,32.472-16.726,49.379-21.679C200.637,300.486,221.51,294.37,238.614,277.269ZM347.566,125.943c-20.191,5.913-41.065,12.029-58.169,29.13-1.723,1.73-3.394,3.553-4.962,5.424l1.82,1.529c1.519-1.817,3.149-3.592,4.83-5.273,16.674-16.671,37.25-22.7,57.151-28.529,9.294-2.722,18.9-5.538,28.047-9.4l-.928-2.189C366.345,120.444,356.8,123.24,347.566,125.943ZM175.257,301.21c20.191-5.913,41.065-12.029,58.163-29.133s23.221-37.978,29.133-58.169l1.028-3.5-2.279-.672-1.028,3.5c-5.835,19.9-11.858,40.483-28.535,57.157s-37.25,22.7-57.151,28.529c-15.488,4.539-31.5,9.226-45.733,18.869l1.338,1.969C144.11,310.33,159.943,305.694,175.257,301.21ZM342.378,120.754c-20.185,5.913-41.065,12.026-58.163,29.13-.443.44-.879.886-1.3,1.325l1.713,1.652c.417-.433.841-.863,1.267-1.3,16.677-16.671,37.254-22.7,57.154-28.525,11-3.226,22.377-6.556,33.035-11.644l-1.025-2.147C364.57,114.254,353.288,117.561,342.378,120.754Zm-72.92,54.07-2.127-1.051c-4.995,10.118-8.214,20.524-11.612,32.094l2.286.672C261.369,195.074,264.56,184.775,269.458,174.825Zm-41.223,92.064c15.646-15.65,22.105-34.389,27.859-53.828l-2.286-.672c-5.657,19.128-12,37.564-27.252,52.819-16.674,16.671-37.26,22.7-57.161,28.529-15.9,4.658-32.353,9.478-46.881,19.658l1.371,1.949c14.2-9.96,30.458-14.722,46.179-19.325C190.256,290.106,211.13,283.993,228.234,266.889ZM337.189,115.566c-19.131,5.605-38.928,11.4-55.483,26.56l1.61,1.752c16.147-14.783,35.67-20.5,54.545-26.03,12.7-3.724,25.839-7.571,37.929-14.137l-1.131-2.088C362.789,108.066,349.777,111.877,337.189,115.566Zm-87.037,86.413,2.286.666a259.407,259.407,0,0,1,8.528-25.658l-2.2-.9A261.433,261.433,0,0,0,250.152,201.979ZM223.046,261.7c15.549-15.553,21.866-33.72,27.465-52.528l-2.273-.679c-5.518,18.5-11.719,36.368-26.873,51.523-16.674,16.674-37.257,22.7-57.157,28.532-16.315,4.778-33.187,9.721-47.993,20.457l1.4,1.923c14.476-10.493,31.144-15.378,47.272-20.1C185.068,284.914,205.941,278.8,223.046,261.7Zm57.7-128.38,1.484,1.856c15.232-12.207,33.135-17.45,50.446-22.519,20.185-5.913,41.065-12.026,58.163-29.13.5-.508,1.005-1.012,1.49-1.526l-1.73-1.633c-.469.495-.954.986-1.439,1.474C372.48,98.517,351.9,104.546,332,110.374,314.47,115.511,296.344,120.819,280.743,133.32ZM159.685,285.638c20.185-5.913,41.065-12.026,58.169-29.13s23.217-37.981,29.133-58.172c3.074-10.506,6.265-21.375,10.956-31.512l-2.153-1c-4.775,10.3-7.981,21.252-11.082,31.845-5.835,19.9-11.864,40.48-28.532,57.157s-37.254,22.7-57.161,28.529c-14.641,4.29-29.783,8.728-43.4,17.343l1.27,2.011C130.219,294.27,145.2,289.883,159.685,285.638Zm114.88-156.705,1.51,1.833c15.462-12.769,33.736-18.123,51.41-23.3,18.126-5.311,36.866-10.8,52.838-24.242l-1.532-1.817c-15.585,13.115-34.082,18.536-51.975,23.777C308.906,110.429,290.4,115.854,274.565,128.933Zm-32.754,64.176c2.961-10.109,6.023-20.557,10.429-30.345l-2.172-.976c-4.474,9.937-7.558,20.469-10.535,30.652l-.482,1.623,2.286.669Zm-2.412,8.15-2.282-.692c-1.623,5.344-3.844,12.349-6.666,19.121l2.2.915C235.508,213.733,237.758,206.654,239.4,201.258ZM212.665,251.32a85.523,85.523,0,0,0,13.965-18.381l-2.062-1.18a83.823,83.823,0,0,1-13.584,17.88c-16.674,16.671-37.25,22.7-57.151,28.529-15.035,4.4-30.572,8.955-44.475,18.029l1.3,1.991c13.606-8.88,28.975-13.383,43.845-17.738C174.688,274.537,195.568,268.421,212.665,251.32Zm50.789-122.193-.039.039,1.717,1.645c16.677-16.674,37.26-22.7,57.161-28.532,17.78-5.208,36.174-10.6,51.933-23.489l-1.51-1.839c-15.388,12.585-33.539,17.9-51.093,23.046C301.432,105.91,280.559,112.023,263.454,129.127Zm-16.871,29.5-2.179-.957a178.139,178.139,0,0,0-6.989,19.273l2.266.7A177.539,177.539,0,0,1,246.583,158.629Zm-14.99,37.861,2.276.7q.994-3.254,1.949-6.524l-2.286-.669Q232.577,193.246,231.593,196.49Zm.2,7.2-2.253-.75c-1.574,4.726-3.12,8.858-4.729,12.627L227,216.5C228.632,212.667,230.206,208.474,231.8,203.686Zm-82.486,71.575c20.185-5.916,41.065-12.029,58.166-29.13a85.021,85.021,0,0,0,9.666-11.57L215.19,233.2a82.676,82.676,0,0,1-9.394,11.243c-16.668,16.674-37.25,22.7-57.154,28.532-13.3,3.9-27.035,7.92-39.607,15.064l1.183,2.066C122.541,283.1,136.148,279.115,149.311,275.261ZM258.263,123.939l-.75.763,1.7,1.658.727-.744c16.681-16.671,37.257-22.7,57.161-28.529,16.584-4.859,33.733-9.882,48.73-20.993l-1.416-1.914c-14.654,10.862-31.6,15.824-47.983,20.625C296.241,100.718,275.367,106.831,258.263,123.939Zm-26.347,48.82,2.273.7a186.55,186.55,0,0,1,6.789-19.073l-2.179-.934A186.381,186.381,0,0,0,231.916,172.759Zm-87.8,97.314c20.191-5.913,41.065-12.029,58.169-29.133a84.854,84.854,0,0,0,9.061-10.7l-1.94-1.38a82.8,82.8,0,0,1-8.8,10.4c-16.678,16.671-37.254,22.7-57.154,28.532-11.5,3.365-23.389,6.85-34.467,12.339l1.054,2.13C120.938,276.862,132.721,273.412,144.116,270.073ZM253.074,118.747a86.076,86.076,0,0,0-6,6.672l1.856,1.493a81.2,81.2,0,0,1,5.822-6.482c16.681-16.674,37.257-22.7,57.157-28.532,13.859-4.057,28.186-8.253,41.191-15.986l-1.212-2.046c-12.753,7.581-26.935,11.735-40.648,15.75C291.058,95.53,270.178,101.643,253.074,118.747Zm-26.605,49.67,2.273.692A199.765,199.765,0,0,1,235.453,150l-2.192-.921A200.03,200.03,0,0,0,226.469,168.417ZM215.84,207.9c1.713-3.831,3.336-8,4.959-12.76l-2.25-.769c-1.6,4.687-3.2,8.793-4.878,12.559Zm-76.916,56.983c20.195-5.916,41.068-12.029,58.172-29.133a84.59,84.59,0,0,0,8.541-9.979l-1.927-1.4a82.614,82.614,0,0,1-8.3,9.7c-16.674,16.674-37.25,22.7-57.154,28.532-7.493,2.192-15.239,4.461-22.7,7.267l.84,2.227C123.779,269.323,131.483,267.066,138.924,264.884ZM247.889,113.558a84.86,84.86,0,0,0-6.414,7.183l1.869,1.481a82.076,82.076,0,0,1,6.22-6.983c16.674-16.671,37.257-22.7,57.161-28.529,10.335-3.026,21.026-6.158,31.1-10.736l-.986-2.169c-9.918,4.513-20.524,7.619-30.779,10.623C285.87,90.341,264.99,96.458,247.889,113.558Zm-17.874,31.849-2.2-.915c-2.858,6.889-5.1,13.962-6.73,19.357l2.282.689C224.985,159.2,227.193,152.2,230.015,145.407Zm-8.58,25.635-2.279-.669-.423,1.426c-2.981,10.17-6.061,20.686-10.519,30.53l2.166.983c4.526-10,7.632-20.6,10.639-30.846Zm-110.82,96.092c7.561-2.884,15.475-5.2,23.127-7.442,20.185-5.913,41.059-12.029,58.163-29.13q2.017-2.012,3.834-4.089l-1.794-1.568q-1.76,2.017-3.711,3.973c-16.684,16.674-37.26,22.7-57.161,28.532-7.7,2.253-15.659,4.587-23.311,7.5ZM257.678,99.27c13.606-8.887,28.981-13.393,43.848-17.748,5.564-1.629,11.308-3.314,16.9-5.2l-.766-2.253c-5.541,1.878-11.269,3.553-16.807,5.176-15.032,4.4-30.578,8.958-44.482,18.038Zm-13.3,10.778c.9-.9,1.8-1.762,2.719-2.6l-1.6-1.755q-1.421,1.29-2.8,2.677-1.062,1.062-2.066,2.14l1.742,1.62Q243.35,111.082,244.382,110.048Zm-16.956,24.326-2.147-1.028c-5.127,10.7-8.479,22.131-11.712,33.184-3.016,10.3-6.136,20.951-10.681,30.908l2.166.989c4.613-10.115,7.758-20.848,10.8-31.231C219.06,156.237,222.383,144.9,227.426,134.374Zm-40.709,91a85.059,85.059,0,0,0,7.949-9.178l-1.907-1.422a83.328,83.328,0,0,1-7.723,8.919c-16.674,16.674-37.25,22.7-57.154,28.532-5.657,1.655-11.5,3.369-17.185,5.3l.763,2.253c5.635-1.917,11.46-3.624,17.091-5.273C148.739,248.588,169.619,242.475,186.717,225.371Zm21.662-64.024-1.59,5.392,2.286.676,1.59-5.4c5.829-19.9,11.851-40.483,28.525-57.154,8.428-8.431,18.368-14.79,31.273-20.01l-.892-2.2c-13.212,5.344-23.4,11.867-32.059,20.534C220.408,120.282,214.295,141.159,208.379,161.347Zm-26.854,58.835c14.082-14.075,20.6-30.546,25.558-46.247l-2.273-.718c-4.862,15.413-11.25,31.571-24.963,45.284C163.17,235.173,142.6,241.2,122.7,247.03c-7.778,2.279-15.818,4.632-23.537,7.59l.85,2.218c7.636-2.922,15.62-5.263,23.356-7.526C143.547,243.4,164.427,237.284,181.525,220.183Zm21.662-64.024c-5.825,19.9-11.858,40.48-28.525,57.154s-37.257,22.7-57.154,28.529c-5.408,1.584-11,3.223-16.445,5.053l.75,2.253c5.4-1.814,10.972-3.446,16.361-5.024,20.191-5.913,41.065-12.029,58.169-29.13s23.214-37.981,29.123-58.169c5.835-19.9,11.858-40.48,28.535-57.151,8.547-8.554,18.688-14.993,31.9-20.263l-.886-2.211c-13.522,5.4-23.916,12-32.7,20.789C215.216,115.094,209.1,135.971,203.187,156.159Zm2.1-27.924,2.221.837c5.476-14.541,12.242-25.532,21.3-34.59a84.915,84.915,0,0,1,21.064-15.323l-1.1-2.1A87.043,87.043,0,0,0,227.132,92.8C217.825,102.108,210.878,113.368,205.285,128.235Zm-.032,7.2L203,134.681c-.727,2.156-1.416,4.322-2.085,6.5l2.273.7Q204.181,138.647,205.253,135.437ZM171.145,209.8c13.574-13.568,20.3-29.159,26.224-48.387l-2.276-.7c-5.812,18.892-12.4,34.186-25.626,47.408-16.671,16.674-37.254,22.7-57.154,28.532-7.067,2.069-14.369,4.209-21.43,6.8l.821,2.234c6.976-2.564,14.25-4.691,21.278-6.75C133.173,233.023,154.047,226.907,171.145,209.8Zm19.593-57.012,2.273.685q1.062-3.511,2.075-7.031c5.835-19.9,11.864-40.483,28.535-57.154a81.51,81.51,0,0,1,11.99-9.905l-1.345-1.969A85.521,85.521,0,0,0,221.94,87.61c-17.1,17.1-23.217,37.978-29.133,58.166C192.125,148.113,191.44,150.456,190.738,152.79Zm-24.782,51.827c13.872-13.872,20.444-30.345,25.034-44.631l-2.26-.727c-4.736,14.722-10.975,30.2-24.455,43.674-16.668,16.674-37.25,22.7-57.151,28.529-6.165,1.8-12.533,3.672-18.711,5.829l.786,2.243c6.116-2.137,12.462-3.992,18.594-5.79C127.985,227.831,148.859,221.718,165.956,204.617Zm40.3-105A82.79,82.79,0,0,1,218.429,84.1c.411-.407.815-.8,1.225-1.2l-1.642-1.72c-.43.407-.844.821-1.261,1.238a84.71,84.71,0,0,0-12.527,15.957ZM189.9,141.25c3.517-12,7.147-24.4,13.057-35.789l-2.108-1.1c-6.019,11.6-9.685,24.113-13.235,36.216-2.092,7.138-4.251,14.521-6.863,21.6l2.227.821C185.63,155.849,187.8,148.43,189.9,141.25ZM177.61,175.617c.992-1.985,1.92-4.028,2.854-6.239l-2.185-.928c-.921,2.169-1.83,4.167-2.8,6.113Zm-16.846,23.809a85.321,85.321,0,0,0,13.606-17.754l-2.056-1.2a83.36,83.36,0,0,1-13.222,17.266c-16.674,16.674-37.26,22.7-57.161,28.532-6.743,1.975-13.713,4.015-20.45,6.446l.8,2.237c6.679-2.4,13.613-4.435,20.318-6.4C122.793,222.643,143.667,216.53,160.765,199.425Zm21.368-63.009,2.279.672.3-1.018c4.826-16.487,9.821-33.533,20.819-48.248L203.624,86.4c-11.25,15.058-16.309,32.314-21.2,49Zm-1.933,6.511c-1.717,5.693-3.844,12.423-6.611,19.144l2.192.905c2.816-6.815,4.962-13.613,6.7-19.364Zm-24.617,51.309A89.1,89.1,0,0,0,173,169.245l-2.14-1.028A86.833,86.833,0,0,1,153.9,192.553c-16.674,16.674-37.257,22.7-57.157,28.532-6.333,1.852-12.876,3.773-19.222,6.006l.789,2.244c6.291-2.214,12.8-4.122,19.1-5.968C117.6,217.454,138.478,211.338,155.583,194.237ZM186.7,108.444a112.154,112.154,0,0,1,8.573-18.219l-2.046-1.212a115.493,115.493,0,0,0-8.757,18.6Zm-2.256,6.362-2.253-.753q-1.076,3.239-2.075,6.5l2.273.7Q183.385,118.018,184.447,114.806Zm-7.135,15.145q-1.474,5.082-3.016,10.138l2.266.7c1.047-3.381,2.046-6.779,3.036-10.173l.84-2.874-2.279-.669Zm-2.829,17.337-2.253-.756c-1.578,4.7-3.142,8.819-4.784,12.6l2.182.944C171.3,156.237,172.887,152.05,174.484,147.288Zm-24.093,41.76a87.832,87.832,0,0,0,16.322-22.758l-2.127-1.073a85.451,85.451,0,0,1-15.873,22.147c-16.674,16.674-37.254,22.7-57.154,28.529-7.115,2.082-14.466,4.238-21.562,6.847l.821,2.234c7.021-2.583,14.334-4.723,21.41-6.8C112.413,212.262,133.293,206.149,150.391,189.048Zm35.13-95.368-2.153-1.012q-1.455,3.113-2.732,6.288l2.2.889C183.678,97.773,184.564,95.714,185.521,93.681Zm-5.069,12.472-2.24-.8c-2.324,6.543-4.251,13.138-6.113,19.513l2.279.669C176.233,119.193,178.153,112.634,180.452,106.152Zm-8,25.91-2.282-.682c-.65,2.163-1.306,4.322-1.995,6.472l2.266.724C171.138,136.41,171.8,134.238,172.454,132.062Zm-8.79,18.514,2.208.883c.847-2.121,1.642-4.257,2.408-6.4l-2.25-.792Q164.915,147.439,163.664,150.576ZM145.2,183.857a89.866,89.866,0,0,0,17.951-26.1l-2.159-1.005a87.606,87.606,0,0,1-17.473,25.428c-16.674,16.671-37.25,22.7-57.151,28.529-8.095,2.373-16.467,4.823-24.488,7.956l.86,2.218c7.93-3.1,16.244-5.534,24.3-7.891C107.225,207.074,128.1,200.958,145.2,183.857ZM37.747,231.617l1.413,1.914a94.191,94.191,0,0,1,17.382-10.054l-.979-2.166A96.272,96.272,0,0,0,37.747,231.617ZM171.2,113.539l-2.279-.689q-.975,3.263-1.933,6.527l2.286.669C169.913,117.874,170.547,115.705,171.2,113.539Zm-31.192,65.129c15.5-15.5,22.011-34.238,27.339-52.1l-2.273-.682c-5.466,18.3-11.622,35.977-26.744,51.1-16.674,16.674-37.254,22.7-57.154,28.532-18.475,5.412-37.574,11-53.75,25.015l1.561,1.8c15.782-13.668,34.632-19.189,52.858-24.53C102.033,201.886,122.906,195.769,140.011,178.668ZM13.577,245.879l1.946,1.367a82.374,82.374,0,0,1,7.891-9.614L21.7,235.987A86.03,86.03,0,0,0,13.577,245.879ZM165.294,110.769l-2.286-.679-1.914,6.524,2.279.672Zm-10.652,32.375a201.447,201.447,0,0,0,6.792-19.335l-2.273-.692a199.414,199.414,0,0,1-6.711,19.105Zm-134.315,83.9,1.616,1.749c16.176-14.9,35.767-20.641,54.71-26.188,20.191-5.916,41.065-12.029,58.169-29.133a85.71,85.71,0,0,0,13.758-18.022l-2.059-1.19a83.368,83.368,0,0,1-13.38,17.531c-16.674,16.674-37.257,22.7-57.157,28.532C56.775,205.952,36.92,211.768,20.326,227.049Zm124.262-78.93a127.039,127.039,0,0,0,8.192-18.837l-2.244-.792a124.747,124.747,0,0,1-8.036,18.491Zm-3.491,5.919-2.007-1.287a81.439,81.439,0,0,1-11.143,13.855c-.517.52-1.041,1.034-1.571,1.532l1.639,1.726c.543-.517,1.086-1.041,1.616-1.578A84.558,84.558,0,0,0,141.1,154.038Zm-69.636,43.38c17.528-5.134,35.657-10.438,51.258-22.936l-1.49-1.856C106,184.827,88.1,190.07,70.8,195.136c-20.191,5.913-41.065,12.029-58.169,29.133-.5.5-1,1.012-1.484,1.519l1.717,1.645c.475-.5.96-.992,1.448-1.484C30.985,209.275,51.561,203.246,71.461,197.418ZM150.139,116.4l-2.273-.711c-1.536,4.9-2.935,8.955-4.419,12.759l2.214.863C147.158,125.458,148.587,121.356,150.139,116.4Zm-25.7,46.7a90.635,90.635,0,0,0,18.575-27.465l-2.172-.98a88.162,88.162,0,0,1-18.084,26.76c-16.674,16.674-37.25,22.7-57.151,28.532-20.191,5.913-41.065,12.026-58.163,29.13-.753.747-1.477,1.5-2.185,2.263L7,222.96q1.033-1.11,2.114-2.2c16.674-16.671,37.254-22.7,57.161-28.532C86.464,186.317,107.338,180.2,124.442,163.1Zm18.543-45.875-2.253-.766q-1.091,3.191-2.3,6.339l2.218.86C141.475,121.524,142.248,119.381,142.985,117.224Zm-11.321,24.924a102.918,102.918,0,0,0,6.365-12.161l-2.172-.97a99.915,99.915,0,0,1-6.22,11.883ZM119.25,157.908a85.28,85.28,0,0,0,8.589-10.044l-1.927-1.4a81.944,81.944,0,0,1-19.024,18.763l1.377,1.94A84.3,84.3,0,0,0,119.25,157.908ZM13.425,204.5l1.371,1.946c14.23-10.012,30.526-14.786,46.286-19.4,11.822-3.462,24.045-7.041,35.4-12.8l-1.073-2.121c-11.166,5.664-23.275,9.21-34.994,12.643C44.471,189.43,27.978,194.26,13.425,204.5Zm119.4-79.663-2.166-.97a94.784,94.784,0,0,1-9.957,17.444l1.923,1.4A96.941,96.941,0,0,0,132.821,124.834ZM118.348,148.1l-1.8-1.552c-1.309,1.526-2.709,3.036-4.164,4.487l-.133.145,1.82,1.536C115.558,151.226,117,149.671,118.348,148.1ZM55.9,181.849c3.288-.963,6.579-1.927,9.857-2.935l-.708-2.273c-3.259,1.005-6.543,1.965-9.811,2.926-17,4.975-34.57,10.122-49.829,21.817l1.451,1.888C21.765,191.848,39.115,186.763,55.9,181.849Zm-8.8-4.128-.676-2.282c-13.209,3.9-26.056,7.991-38.023,15.187l1.232,2.04C21.354,185.612,34.046,181.571,47.1,177.721ZM34.735,174.7l-.708-2.269q-3.259,1.013-6.491,2.108l.773,2.253C30.435,176.059,32.582,175.368,34.735,174.7Z" transform="translate(-55.91 586.947) rotate(-45)" fill="#e7e7e7"/>
</svg>
