<svg width="104" height="64" viewBox="0 0 104 64" fill="none" xmlns="http://www.w3.org/2000/svg">
<path d="M31.6375 33.6409C30.6669 34.009 29.5658 34.193 28.3304 34.193C24.2906 34.193 22.2726 32.2412 22.2726 28.3337C22.2726 24.6371 24.2906 22.7888 28.3304 22.7888C29.562 22.7888 30.663 22.9729 31.6375 23.341V25.2277C30.6669 24.8097 29.6195 24.5988 28.4877 24.5988C25.7868 24.5988 24.4364 25.845 24.4364 28.3337C24.4364 31.0333 25.7868 32.3831 28.4877 32.3831C29.6157 32.3831 30.663 32.1722 31.6375 31.7542V33.6409Z" fill="white"/>
<path d="M33.0148 29.9826C33.0148 27.214 34.3806 25.8297 37.1084 25.8297C39.8361 25.8297 41.2019 27.214 41.2019 29.9826C41.2019 32.7474 39.8361 34.1279 37.1084 34.1279C34.3883 34.1279 33.0263 32.7474 33.0148 29.9826ZM37.1084 32.5403C38.4473 32.5403 39.1149 31.6775 39.1149 29.9519C39.1149 28.2685 38.4473 27.4288 37.1084 27.4288C35.7694 27.4288 35.1019 28.2685 35.1019 29.9519C35.098 31.6775 35.7694 32.5403 37.1084 32.5403Z" fill="white"/>
<path d="M44.8581 22.8655V34.1125H42.771V22.8655H44.8581Z" fill="white"/>
<path d="M50.3098 25.8527C52.8189 25.8527 54.0696 27.1335 54.0696 29.6912C54.0696 30.0325 54.0465 30.3737 54.0005 30.715H48.5143C48.5143 31.8808 49.3698 32.4598 51.0809 32.4598C51.9134 32.4598 52.7498 32.3793 53.5823 32.222V33.8748C52.8534 34.032 51.9672 34.1125 50.9236 34.1125C47.9273 34.1125 46.4311 32.7052 46.4311 29.8906C46.4311 27.1987 47.724 25.8527 50.3098 25.8527ZM48.5143 29.2655H52.04V29.2042C52.04 28.0615 51.4646 27.4901 50.3098 27.4901C49.2087 27.4901 48.6102 28.0806 48.5143 29.2655ZM50.2484 22.8655H52.7575L50.8776 24.9017H49.1166L50.2484 22.8655Z" fill="white"/>
<path d="M63.0086 33.4836C63.0086 35.8956 61.5584 37.0997 58.658 37.0997C57.6413 37.0997 56.7398 36.9693 55.9494 36.7047V35.052C56.7513 35.3128 57.6605 35.447 58.6734 35.447C60.1734 35.447 60.9254 34.8181 60.9254 33.5603C60.3077 33.8211 59.6402 33.9553 58.9266 33.9553C56.4712 33.9553 55.2435 32.617 55.2435 29.9366C55.2435 27.214 56.6745 25.8527 59.5327 25.8527C60.4919 25.8527 61.6505 25.9639 63.0125 26.1902V33.4836H63.0086ZM60.9254 27.724C60.5839 27.5975 60.1005 27.5361 59.4714 27.5361C58.0288 27.5361 57.3076 28.3299 57.3076 29.9174C57.3076 31.4551 57.9291 32.222 59.1721 32.222C59.7706 32.222 60.3538 32.0802 60.9254 31.7964V27.724Z" fill="white"/>
<path d="M67.0638 22.8655V24.5183H64.9767V22.8655H67.0638ZM67.0638 25.8527V34.1125H64.9767V25.8527H67.0638Z" fill="white"/>
<path d="M68.6368 29.9826C68.6368 27.214 70.0026 25.8297 72.7303 25.8297C75.4581 25.8297 76.82 27.214 76.82 29.9826C76.82 32.7474 75.4581 34.1279 72.7303 34.1279C70.0102 34.1279 68.6483 32.7474 68.6368 29.9826ZM72.7303 32.5403C74.0693 32.5403 74.7368 31.6775 74.7368 29.9519C74.7368 28.2685 74.0693 27.4288 72.7303 27.4288C71.3914 27.4288 70.7238 28.2685 70.7238 29.9519C70.7238 31.6775 71.3914 32.5403 72.7303 32.5403Z" fill="white"/>
<path d="M22.6678 49.0177V37.7708H24.7548L30.6976 45.9654V37.7708H32.7041V49.0177H30.6208L24.6781 40.6506V49.0177H22.6678Z" fill="white"/>
<path d="M34.4688 44.8878C34.4688 42.1192 35.8346 40.7349 38.5624 40.7349C41.2902 40.7349 42.6559 42.1192 42.6559 44.8878C42.6559 47.6526 41.2902 49.0331 38.5624 49.0331C35.8462 49.0331 34.4804 47.6526 34.4688 44.8878ZM38.5624 47.4455C39.9013 47.4455 40.5689 46.5827 40.5689 44.8572C40.5689 43.1738 39.9013 42.334 38.5624 42.334C37.2235 42.334 36.5559 43.1738 36.5559 44.8572C36.5559 46.5827 37.2235 47.4455 38.5624 47.4455Z" fill="white"/>
<path d="M44.11 39.4235H45.6523L45.9669 40.7618H48.0462V42.4145H46.197V46.2146C46.197 46.9854 46.5308 47.3689 47.1945 47.3689H48.0462V49.0216H46.1894C44.8044 49.0216 44.11 48.2815 44.11 46.7975V39.4235Z" fill="white"/>
<path d="M49.0668 46.4447C49.0668 44.8035 50.2637 43.9829 52.6539 43.9829C53.214 43.9829 53.778 44.0365 54.3381 44.1401V43.5189C54.3381 42.7788 53.8048 42.4107 52.7421 42.4107C51.8405 42.4107 50.8392 42.541 49.7381 42.8056V41.1529C50.8392 40.8921 51.8405 40.7579 52.7421 40.7579C55.1975 40.7579 56.4252 41.6667 56.4252 43.4805V49.0177H55.2128L54.4724 48.2776C53.755 48.7723 52.9608 49.0177 52.0976 49.0177C50.0758 49.0177 49.0668 48.1588 49.0668 46.4447ZM52.6539 45.3978C51.6526 45.3978 51.15 45.7391 51.15 46.4217C51.15 47.1579 51.5682 47.5222 52.4083 47.5222C53.1028 47.5222 53.7435 47.3075 54.3381 46.878V45.5551C53.8125 45.4515 53.2524 45.3978 52.6539 45.3978Z" fill="white"/>
<path d="M58.3895 49.0177V40.7579H60.0046L60.2655 41.8125C60.9906 41.1107 61.7541 40.7579 62.5636 40.7579V42.4413C61.7886 42.4413 61.0904 42.7634 60.4765 43.4077V49.0139H58.3895V49.0177Z" fill="white"/>
<path d="M65.8284 37.7708V39.4235H63.7414V37.7708H65.8284ZM65.8284 40.7579V49.0177H63.7414V40.7579H65.8284Z" fill="white"/>
<path d="M67.4014 46.4447C67.4014 44.8035 68.5984 43.9829 70.9886 43.9829C71.5487 43.9829 72.1126 44.0365 72.6728 44.1401V43.5189C72.6728 42.7788 72.1395 42.4107 71.0768 42.4107C70.1752 42.4107 69.1739 42.541 68.069 42.8056V41.1529C69.17 40.8921 70.1714 40.7579 71.0768 40.7579C73.5322 40.7579 74.7598 41.6667 74.7598 43.4805V49.0177H73.5475L72.8071 48.2776C72.0896 48.7723 71.2955 49.0177 70.4323 49.0177C68.4104 49.0177 67.4014 48.1588 67.4014 46.4447ZM70.9886 45.3978C69.9872 45.3978 69.4846 45.7391 69.4846 46.4217C69.4846 47.1579 69.9028 47.5222 70.743 47.5222C71.4374 47.5222 72.0781 47.3075 72.6728 46.878V45.5551C72.1472 45.4515 71.587 45.3978 70.9886 45.3978Z" fill="white"/>
<path d="M78.8112 37.7708V49.0177H76.7241V37.7708H78.8112Z" fill="white"/>
<path d="M22.6678 63.9229V52.676H27.9391C30.0799 52.676 31.1503 53.5503 31.1503 55.295C31.1503 56.5758 30.452 57.4884 29.0594 58.0406C30.5479 58.3167 31.2922 59.1718 31.2922 60.5983C31.2922 62.8147 30.1183 63.9268 27.7741 63.9268H22.6678V63.9229ZM27.6859 62.113C28.6105 62.113 29.0709 61.6413 29.0709 60.698C29.0709 59.5284 28.3803 58.9456 26.9992 58.9456H26.37V57.5996C28.1002 57.312 28.9673 56.5873 28.9673 55.4292C28.9673 54.8004 28.5798 54.4859 27.801 54.4859H24.7471V62.113H27.6859Z" fill="white"/>
<path d="M32.8652 63.9229V55.6631H34.4804L34.7412 56.7177C35.4663 56.0159 36.2298 55.6631 37.0393 55.6631V57.3466C36.2643 57.3466 35.5661 57.6687 34.9522 58.3129V63.9191H32.8652V63.9229Z" fill="white"/>
<path d="M37.822 61.3499C37.822 59.7087 39.0189 58.8881 41.4091 58.8881C41.9692 58.8881 42.5332 58.9418 43.0933 59.0453V58.4241C43.0933 57.684 42.56 57.3159 41.4973 57.3159C40.5957 57.3159 39.5944 57.4462 38.4933 57.7108V56.0581C39.5944 55.7974 40.5957 55.6631 41.4973 55.6631C43.9527 55.6631 45.1804 56.572 45.1804 58.3857V63.9229H43.968L43.2276 63.1829C42.5102 63.6775 41.716 63.9229 40.849 63.9229C38.831 63.9229 37.822 63.064 37.822 61.3499ZM41.4091 60.303C40.4078 60.303 39.9052 60.6443 39.9052 61.3269C39.9052 62.0631 40.3234 62.4274 41.1635 62.4274C41.858 62.4274 42.4987 62.2127 43.0933 61.7832V60.4603C42.5715 60.3567 42.0076 60.303 41.4091 60.303Z" fill="white"/>
<path d="M47.1485 63.528V61.7986C48.0654 62.1667 49.1281 62.3507 50.329 62.3507C51.2267 62.3507 51.6756 62.0631 51.6756 61.4841C51.6756 60.9319 51.3725 60.6597 50.7702 60.6597H49.2739C47.5935 60.6597 46.7572 59.8352 46.7572 58.1825C46.7572 56.4531 47.981 55.5865 50.4325 55.5865C51.4722 55.5865 52.4505 55.7437 53.3675 56.0581V57.7875C52.4505 57.4194 51.4531 57.2353 50.3788 57.2353C49.2509 57.2353 48.6869 57.5229 48.6869 58.102C48.6869 58.6542 49.013 58.9264 49.6691 58.9264H51.008C52.8457 58.9264 53.7626 59.7509 53.7626 61.4036C53.7626 63.133 52.5925 63.9996 50.2522 63.9996C49.0974 63.9996 48.0654 63.8424 47.1485 63.528Z" fill="white"/>
<path d="M57.2961 52.676V54.3287H55.2128V52.676H57.2961ZM57.2961 55.6631V63.9229H55.2128V55.6631H57.2961Z" fill="white"/>
<path d="M61.3512 52.676V63.9229H59.2642V52.676H61.3512Z" fill="white"/>
<path d="M67.4321 57.5958C67.1214 57.7147 66.7722 57.7722 66.3771 57.7722C65.088 57.7722 64.4435 57.1472 64.4435 55.9009C64.4435 54.7198 65.088 54.1293 66.3771 54.1293C66.7722 54.1293 67.1214 54.1868 67.4321 54.3057V54.9077C67.1214 54.7735 66.7876 54.7083 66.4269 54.7083C65.5637 54.7083 65.134 55.1071 65.134 55.9009C65.134 56.7637 65.5637 57.1932 66.4269 57.1932C66.7876 57.1932 67.1214 57.128 67.4321 56.9938V57.5958Z" fill="white"/>
<path d="M69.5806 55.9546C69.5806 54.739 70.1829 54.1293 71.3837 54.1293C72.5692 54.1293 73.16 54.739 73.16 55.9546C73.16 57.1663 72.5692 57.7722 71.3837 57.7722C70.2366 57.7722 69.6343 57.1663 69.5806 55.9546ZM71.3837 57.1932C72.1088 57.1932 72.4694 56.7752 72.4694 55.9392C72.4694 55.1186 72.1088 54.7045 71.3837 54.7045C70.6433 54.7045 70.2711 55.1148 70.2711 55.9392C70.2711 56.7752 70.6433 57.1932 71.3837 57.1932Z" fill="white"/>
<path d="M75.4389 57.7454V54.1523H76.1064L78.0055 56.7714V54.1523H78.6424V57.7454H77.9748L76.0757 55.0726V57.7454H75.4389Z" fill="white"/>
<path d="M80.9788 57.5958V56.9938C81.3394 57.128 81.7461 57.1932 82.1988 57.1932C82.7513 57.1932 83.0237 57.0091 83.0237 56.641C83.0237 56.3726 82.8549 56.2384 82.5172 56.2384H81.9533C81.2167 56.2384 80.8484 55.9047 80.8484 55.2337C80.8484 54.4974 81.374 54.1293 82.4175 54.1293C82.8203 54.1293 83.2001 54.1868 83.5608 54.3057V54.9077C83.2001 54.7735 82.8203 54.7083 82.4175 54.7083C81.8152 54.7083 81.5121 54.8847 81.5121 55.2375C81.5121 55.5059 81.6579 55.6401 81.9494 55.6401H82.5134C83.2961 55.6401 83.6874 55.9738 83.6874 56.6448C83.6874 57.3964 83.1886 57.776 82.195 57.776C81.7461 57.7722 81.3394 57.7147 80.9788 57.5958Z" fill="white"/>
<path d="M88.3679 54.1561V54.7275H86.5686V55.6325H88.2835V56.2268H86.5609V57.1701H88.4025V57.7492H85.9087V54.1561H88.3679Z" fill="white"/>
<path d="M91.3297 54.1561V57.1701H92.7569V57.7492H90.6622V54.1561H91.3297Z" fill="white"/>
<path d="M95.0319 57.7454V54.1523H95.6995V55.6325H97.4719V54.1523H98.1395V57.7454H97.4719V56.2115H95.6995V57.7454H95.0319Z" fill="white"/>
<path d="M100.415 55.9546C100.415 54.739 101.017 54.1293 102.218 54.1293C103.403 54.1293 103.994 54.739 103.994 55.9546C103.994 57.1663 103.403 57.7722 102.218 57.7722C101.067 57.7722 100.468 57.1663 100.415 55.9546ZM102.218 57.1932C102.943 57.1932 103.303 56.7752 103.303 55.9392C103.303 55.1186 102.943 54.7045 102.218 54.7045C101.473 54.7045 101.105 55.1148 101.105 55.9392C101.105 56.7752 101.473 57.1932 102.218 57.1932Z" fill="white"/>
<path d="M66.9257 60.3261V60.8974H65.2261V61.8024H66.8413V62.3968H65.2184V63.9153H64.5662V60.3222H66.9257V60.3261Z" fill="white"/>
<path d="M71.5986 60.3261V60.8974H69.7992V61.8024H71.5141V62.3968H69.7916V63.3401H71.6331V63.9191H69.1394V60.3261H71.5986Z" fill="white"/>
<path d="M73.8966 63.9191V60.3261H75.3046C76.4939 60.3261 77.0886 60.8936 77.0886 62.0248C77.0886 63.2864 76.4939 63.9191 75.3046 63.9191H73.8966ZM75.3046 63.3401C76.0489 63.3401 76.421 62.903 76.421 62.0248C76.421 61.2771 76.0489 60.9051 75.3046 60.9051H74.5642V63.3401H75.3046Z" fill="white"/>
<path d="M81.7615 60.3261V60.8974H79.9621V61.8024H81.6771V62.3968H79.9545V63.3401H81.796V63.9191H79.3023V60.3261H81.7615Z" fill="white"/>
<path d="M84.0595 63.9153V60.3299H85.6939C86.4267 60.3299 86.795 60.652 86.795 61.2924C86.795 61.7257 86.5111 62.0862 85.9394 62.3699L87.0789 63.9229H86.2387L85.1453 62.3584V62.0555C85.7821 61.9481 86.1005 61.6989 86.1005 61.3154C86.1005 61.0508 85.9509 60.9204 85.6517 60.9204H84.7386V63.9229H84.0595V63.9153Z" fill="white"/>
<path d="M89.4076 63.9191H88.7247L90.2516 60.3261H90.9691L92.5267 63.9191H91.8093L91.3988 62.9413H90.2056L90.4358 62.3623H91.1609L90.5969 61.0125L89.4076 63.9191Z" fill="white"/>
<path d="M95.2736 60.3261V63.3401H96.7008V63.9191H94.6061V60.3261H95.2736Z" fill="white"/>
<path d="M87.1441 48.8452C86.3499 49.0522 85.5788 49.1558 84.8191 49.1558C83.1464 49.1558 82.3101 48.2585 82.3101 46.4639C82.3101 44.8073 83.1272 43.979 84.7654 43.979C85.1146 43.979 85.4713 44.0595 85.8358 44.2244V42.1039H87.1441V48.8452ZM85.8358 45.3326C85.5673 45.1562 85.2297 45.0681 84.8191 45.0681C84.0058 45.0681 83.603 45.5244 83.603 46.4332C83.603 47.5145 84.025 48.0552 84.869 48.0552C85.2105 48.0552 85.5327 48.0092 85.8358 47.9133V45.3326Z" fill="white"/>
<path d="M88.1301 46.5674C88.1301 44.8303 88.9856 43.9637 90.6967 43.9637C92.4078 43.9637 93.2633 44.8303 93.2633 46.5674C93.2633 48.3007 92.4078 49.1673 90.6967 49.1673C88.9894 49.1673 88.1339 48.3007 88.1301 46.5674ZM90.6928 48.1703C91.533 48.1703 91.9512 47.6296 91.9512 46.5482C91.9512 45.4937 91.533 44.9645 90.6928 44.9645C89.8526 44.9645 89.4345 45.4937 89.4345 46.5482C89.4345 47.6296 89.8565 48.1703 90.6928 48.1703Z" fill="white"/>
<path d="M28.434 0.570978L26.1858 1.5258C16.7365 5.55983 10.813 12.535 8.07369 22.8502C7.06852 26.6426 6.68487 30.3431 6.92657 33.8671C10.1761 26.1096 15.7697 22.1791 27.5133 18.5746C29.374 18.0032 33.7706 15.9977 34.7643 12.2551L37.9754 0.156838C34.7374 -0.153768 31.5301 0.00345229 28.434 0.570978Z" fill="white"/>
<path d="M17.6151 55.6133C11.8795 50.2716 7.72457 43.7374 6.65802 35.8534C6.32424 36.8121 6.01348 37.8283 5.71807 38.9365C4.828 42.2841 4.5441 46.414 4.93543 50.2601L5.03134 51.1881C8.59162 56.5873 13.8898 61.0048 20.4426 63.9536L20.4004 60.9319C20.2814 58.7768 20.0973 57.9217 17.6151 55.6133Z" fill="white"/>
<path d="M26.0017 1.104C16.8938 4.99232 10.5175 11.8486 7.62865 22.7352C6.47386 27.076 6.16311 31.1062 6.53908 34.8373C6.07103 36.0682 5.65669 37.3873 5.27687 38.8176C4.29856 42.5027 4.11441 46.7246 4.47888 50.3062C3.55428 48.803 2.76396 47.2346 2.11943 45.6087C2.03503 45.3978 1.95446 45.1869 1.87389 44.9722C1.801 44.7766 1.73194 44.5811 1.66288 44.3817C1.5593 44.0787 1.45571 43.7758 1.3598 43.4729C1.33678 43.3923 1.30993 43.3156 1.28691 43.2351C1.16798 42.8401 1.05672 42.4413 0.953131 42.0387C0.945458 42.0042 0.933949 41.9658 0.926276 41.9313C0.815017 41.4942 0.715268 41.0532 0.623192 40.6084C0.619355 40.593 0.615519 40.5777 0.615519 40.5624C0.0477159 37.7861 -0.136436 34.8794 0.101427 31.8846C0.101427 31.8731 0.101427 31.8654 0.105263 31.8539C0.143629 31.3746 0.193503 30.8914 0.254887 30.4083C0.258724 30.3699 0.266397 30.3354 0.270233 30.2971C0.331617 29.8292 0.400674 29.3576 0.481241 28.8859C0.488914 28.8361 0.500424 28.7862 0.508097 28.7364C0.588663 28.2685 0.680739 27.7969 0.784325 27.3252C0.795835 27.283 0.803508 27.2409 0.815017 27.1987C0.922439 26.7117 1.04137 26.2247 1.16798 25.7338C1.29074 25.266 1.42886 24.8059 1.57081 24.3457C1.61301 24.2077 1.65905 24.0734 1.70125 23.9392C1.80867 23.6056 1.92377 23.272 2.03886 22.9422C2.0849 22.808 2.13478 22.67 2.18465 22.5358C2.34195 22.1178 2.50308 21.6998 2.67189 21.2933C2.6834 21.2665 2.69107 21.2435 2.70258 21.2166C2.88289 20.7833 3.07472 20.3577 3.27422 19.9359C3.33177 19.8093 3.39315 19.6866 3.45453 19.5639C3.60416 19.2572 3.75762 18.9504 3.91491 18.6474C3.98013 18.5209 4.04536 18.3905 4.11441 18.2678C4.31007 17.8997 4.51341 17.5392 4.72058 17.1826C4.7436 17.1404 4.76662 17.0983 4.79347 17.0561C5.0275 16.6611 5.2692 16.2738 5.51474 15.8903C5.58763 15.7753 5.66436 15.6641 5.74109 15.5491C5.92524 15.2691 6.11323 14.993 6.30506 14.7208C6.38946 14.6019 6.47386 14.483 6.55827 14.3642C6.78462 14.0497 7.01865 13.7391 7.25651 13.4323C7.29871 13.3787 7.34091 13.3211 7.38312 13.2675C7.66318 12.9147 7.94708 12.5657 8.23866 12.2244C8.3269 12.1209 8.41514 12.0212 8.50338 11.9215C8.71822 11.6722 8.9369 11.4307 9.15942 11.1891C9.25917 11.0817 9.35892 10.9705 9.4625 10.8631C9.71571 10.5947 9.97276 10.334 10.2336 10.077C10.295 10.0157 10.3526 9.95433 10.4178 9.89298C10.7362 9.58237 11.0623 9.27944 11.3884 8.98034C11.4882 8.89214 11.5879 8.80394 11.6877 8.71575C11.9294 8.50101 12.1787 8.28627 12.4281 8.0792C12.5432 7.98333 12.6583 7.88747 12.7734 7.7916C13.0496 7.56919 13.3259 7.35062 13.6098 7.13588C13.6865 7.07836 13.7632 7.01701 13.8438 6.95565C14.1968 6.69106 14.5574 6.43414 14.918 6.18106C15.0254 6.1082 15.1329 6.03534 15.2403 5.96632C15.5127 5.78225 15.7851 5.60586 16.0575 5.42947C16.1841 5.34894 16.3107 5.26841 16.4411 5.18789C16.7365 5.00766 17.0319 4.82743 17.335 4.65487C17.4271 4.60119 17.5153 4.5475 17.6074 4.49765C17.9911 4.27908 18.3824 4.07201 18.7737 3.86877C18.8811 3.81125 18.9924 3.7614 19.0998 3.70388C19.3991 3.55433 19.6983 3.40862 20.0014 3.26674C20.1357 3.20538 20.2699 3.14403 20.4042 3.08267C20.7188 2.94079 21.0372 2.80275 21.3595 2.66853C21.4593 2.62635 21.5552 2.58417 21.6549 2.54199C22.0693 2.37327 22.4836 2.21605 22.9056 2.06266C23.0092 2.02432 23.1128 1.9898 23.2202 1.95529C23.5463 1.84025 23.8763 1.72905 24.2062 1.62551C24.3405 1.58333 24.4786 1.54115 24.6129 1.49897C24.9505 1.39544 25.2919 1.29957 25.6295 1.20754C25.7293 1.1807 25.829 1.15002 25.9288 1.12318C25.9403 1.11934 25.971 1.11167 26.0017 1.104Z" fill="white"/>
</svg>
